<?xml version="1.0" standalone="no"?>
<!DOCTYPE svg PUBLIC "-//W3C//DTD SVG 20010904//EN"
 "http://www.w3.org/TR/2001/REC-SVG-20010904/DTD/svg10.dtd">
<svg version="1.0" xmlns="http://www.w3.org/2000/svg"
 width="1200.000000pt" height="1600.000000pt" viewBox="0 0 1200.000000 1600.000000"
 preserveAspectRatio="xMidYMid meet">

<g transform="translate(0.000000,1600.000000) scale(0.100000,-0.100000)"
fill="#000000" stroke="none">
<path d="M0 14201 c0 -1430 3 -1800 13 -1804 9 -4 9 -6 0 -6 -16 -1 -18 -151
-3 -151 6 0 10 -18 10 -40 0 -31 4 -40 18 -41 9 -1 30 -3 45 -5 28 -3 28 -3
12 22 -9 14 -13 33 -10 44 5 15 2 20 -12 20 -14 1 -13 4 7 15 14 8 30 14 36
15 20 0 25 -32 9 -50 -18 -20 -11 -46 17 -61 19 -10 20 -9 14 22 -7 41 8 73
23 49 6 -8 13 -11 18 -7 4 5 1 12 -7 18 -12 8 -9 14 18 39 22 20 32 39 32 58
0 31 21 55 58 66 27 9 32 -18 4 -29 -16 -6 -16 -7 2 -21 41 -29 82 -8 51 26
-16 18 -16 21 1 59 11 22 25 41 32 41 6 0 12 5 12 10 0 6 7 10 15 10 16 0 24
29 22 74 -2 26 3 31 31 39 30 9 45 27 22 27 -7 0 -7 6 0 19 13 26 13 31 -5 31
-8 0 -22 -11 -31 -25 -19 -29 -61 -36 -48 -7 4 9 8 32 10 51 3 49 21 62 44 31
18 -23 20 -24 64 -12 26 6 62 12 80 12 28 0 35 -4 38 -22 4 -28 39 -35 62 -13
21 21 20 33 -1 31 -12 -1 -18 6 -18 19 0 15 6 19 23 18 12 -2 22 1 22 6 0 15
50 42 63 34 8 -5 5 -9 -10 -13 -20 -5 -20 -6 -6 -42 21 -53 47 -51 40 3 -5 37
-4 39 11 26 36 -32 114 -2 98 38 -5 14 -8 14 -32 -2 -26 -17 -27 -17 -48 10
-12 15 -27 27 -34 27 -7 0 -12 5 -12 10 0 6 -7 10 -16 10 -11 0 -14 6 -8 23
11 38 24 48 45 36 15 -7 21 -6 25 6 3 8 12 15 20 15 8 0 14 9 14 20 0 23 4 24
29 8 27 -17 51 5 51 48 0 18 5 36 11 39 6 4 8 14 4 23 -3 8 0 19 6 23 7 4 9
14 6 23 -5 12 -20 16 -57 16 -49 0 -50 -1 -50 -30 0 -28 2 -30 40 -30 29 0 40
-4 40 -15 0 -11 -11 -15 -39 -15 -36 0 -40 -3 -43 -27 -4 -26 -6 -24 -30 27
l-25 54 32 46 c30 43 34 45 81 46 56 0 104 -15 104 -33 0 -7 4 -13 9 -13 18 0
32 29 26 53 -6 21 0 28 40 51 55 30 59 31 52 12 -5 -14 10 -36 25 -36 4 0 8 7
8 15 0 8 4 15 8 15 5 0 13 12 19 28 l10 27 8 -27 c4 -16 11 -28 17 -28 11 0
-1 74 -13 78 -5 2 -7 8 -4 12 3 5 12 7 20 3 9 -3 15 1 15 11 0 24 41 20 47 -4
6 -21 33 -28 33 -9 0 6 6 9 14 6 23 -9 36 16 29 58 -5 30 -2 41 13 52 13 10
19 27 20 60 1 25 5 48 10 52 5 3 14 15 20 26 6 11 21 21 33 23 19 3 22 -1 19
-20 -2 -17 -10 -24 -30 -26 -25 -3 -28 -7 -28 -43 0 -38 1 -39 34 -39 29 0 33
3 29 20 -4 13 3 27 18 40 20 16 21 19 7 20 -22 0 -23 13 -3 30 9 7 13 21 10
31 -5 16 -1 19 31 19 34 0 36 -1 22 -17 -9 -10 -21 -28 -27 -40 -10 -20 -9
-23 10 -23 15 0 19 5 15 15 -4 11 2 15 24 15 23 0 30 -5 30 -19 0 -23 60 -38
88 -22 16 10 16 10 -2 11 -11 0 -16 3 -12 8 4 4 13 7 19 7 17 0 35 57 20 62
-27 9 -11 23 26 23 26 0 41 5 45 16 9 24 9 24 -39 24 -25 0 -45 -5 -45 -10 0
-7 -6 -7 -19 0 -16 8 -23 5 -40 -16 -11 -15 -18 -31 -15 -36 4 -6 -2 -8 -12
-6 -14 2 -20 14 -22 46 -3 37 -6 42 -27 42 -13 0 -25 -5 -27 -12 -2 -6 -10 -8
-17 -4 -9 6 -9 11 0 22 13 16 69 19 69 4 0 -5 16 -10 35 -10 34 0 75 27 75 50
0 13 11 13 30 0 13 -9 12 -13 -9 -30 l-23 -20 22 0 c27 0 61 39 54 62 -4 14 3
16 53 13 32 -2 88 -1 125 2 l68 6 0 38 c0 37 2 39 30 39 23 0 30 5 30 19 0 10
7 24 15 31 13 11 17 8 28 -19 11 -30 47 -45 47 -18 0 8 4 7 10 -3 8 -12 13
-13 29 -3 13 8 22 9 26 3 3 -6 15 -10 26 -10 14 0 19 -7 19 -25 0 -38 25 -41
68 -9 34 27 35 29 15 32 -13 2 -23 8 -23 13 0 5 -9 4 -20 -3 -31 -20 -54 1
-58 51 -2 28 -8 41 -18 41 -18 0 -18 15 1 34 8 8 15 26 15 40 0 31 29 36 37 6
8 -31 30 -24 37 13 l7 32 25 -32 c33 -43 58 -44 49 -3 -4 17 -3 29 2 28 12 -4
83 71 83 88 0 18 14 18 29 0 6 -7 34 -16 61 -20 27 -4 56 -13 64 -22 23 -23
90 -15 93 11 2 11 0 14 -3 8 -3 -7 -23 -13 -45 -13 -32 0 -39 3 -39 19 0 16 8
21 43 24 l42 4 -42 1 c-36 2 -43 5 -43 22 0 11 -7 20 -15 20 -28 0 -16 30 15
36 16 4 35 13 41 20 6 8 18 14 25 14 8 0 14 5 14 10 0 11 39 13 64 4 9 -3 16
-13 16 -21 0 -12 -9 -14 -40 -11 -37 3 -40 1 -40 -20 0 -21 2 -23 16 -12 13
11 19 10 36 -8 18 -17 19 -23 8 -36 -10 -13 -10 -16 4 -16 11 0 16 9 16 26 l0
27 66 -6 c59 -4 67 -3 71 14 3 10 9 19 14 19 5 0 9 18 9 40 0 31 -4 40 -17 40
-9 0 -14 3 -11 6 6 5 53 -6 91 -21 13 -5 17 -2 17 13 0 11 8 22 20 25 11 3 20
12 20 21 0 9 8 16 20 16 11 0 20 5 20 10 0 6 6 10 13 10 6 0 22 16 35 34 20
29 22 38 12 56 -10 18 -9 25 4 38 15 15 16 15 16 -1 0 -16 3 -16 37 -2 24 10
39 12 41 5 2 -5 23 -10 47 -10 24 0 47 -4 50 -10 11 -18 24 -11 31 18 10 39
25 57 36 40 11 -18 30 10 22 35 -6 18 18 33 36 22 7 -4 7 -12 0 -26 -10 -17
-6 -22 24 -34 45 -19 54 -19 52 1 0 9 5 19 12 21 6 3 12 -2 12 -11 0 -9 5 -16
10 -16 6 0 10 18 10 40 0 22 -4 40 -10 40 -5 0 -10 13 -10 29 0 21 -6 30 -22
34 l-22 6 24 21 c20 17 33 20 63 16 22 -4 37 -2 37 4 0 13 37 50 50 50 19 0
10 -18 -28 -51 -41 -36 -44 -59 -9 -59 31 -1 75 -39 58 -49 -8 -5 -9 -11 -3
-15 5 -3 15 7 22 23 6 16 23 33 36 40 32 14 34 14 34 -5 0 -9 6 -14 12 -11 7
2 13 12 13 23 0 12 10 22 24 26 20 6 30 1 51 -22 15 -17 34 -30 43 -30 21 0
22 16 2 24 -8 3 -15 10 -15 16 0 5 7 10 15 10 8 0 15 5 15 10 0 6 -6 10 -14
10 -7 0 -19 7 -26 15 -11 13 -10 18 6 30 27 20 39 19 71 -9 24 -20 25 -26 14
-40 -12 -14 -11 -16 5 -16 18 0 34 20 50 63 4 12 15 17 32 15 29 -3 55 -38 35
-45 -21 -7 -15 -33 7 -33 19 0 60 32 60 46 0 4 -10 15 -21 25 -13 11 -19 25
-15 34 7 19 26 11 26 -11 0 -10 12 -14 38 -14 26 0 41 -6 50 -20 16 -27 32
-25 32 3 1 26 50 92 50 66 0 -9 7 -22 16 -29 13 -11 19 -10 36 8 18 17 19 23
8 36 -10 13 -10 16 4 16 9 0 16 -8 16 -17 0 -10 6 -26 14 -35 10 -14 15 -15
25 -5 9 9 14 9 21 -3 7 -11 4 -17 -11 -22 -12 -5 -25 -6 -29 -3 -12 7 -50 -26
-50 -43 0 -11 8 -13 33 -8 17 4 42 7 55 8 16 0 22 6 22 22 0 15 13 30 40 46
22 14 40 33 40 43 0 9 6 17 14 17 10 0 16 14 19 43 3 37 4 36 5 -14 2 -62 16
-74 73 -62 15 3 41 1 57 -5 38 -13 64 1 33 17 -12 7 -26 9 -31 6 -6 -3 -10 -1
-10 6 0 9 -4 9 -15 -1 -8 -6 -19 -9 -26 -5 -8 6 -8 10 2 15 10 7 10 11 0 24
-20 24 3 46 49 46 56 0 70 -8 70 -41 0 -19 5 -29 15 -29 11 0 15 11 15 40 0
29 -4 40 -15 40 -8 0 -15 9 -15 20 0 11 4 20 9 20 19 0 41 -45 41 -83 0 -30 3
-38 16 -35 28 5 41 35 26 58 -12 19 -10 20 45 20 52 1 56 2 39 15 -18 13 -17
14 5 19 60 13 74 11 84 -11 5 -13 15 -23 22 -23 7 0 13 -11 13 -24 0 -30 16
-42 34 -27 14 12 26 5 26 -16 0 -7 -7 -13 -15 -13 -8 0 -15 -7 -15 -15 0 -8
-9 -19 -20 -25 -26 -14 -26 -40 -1 -40 11 0 23 -5 26 -10 11 -18 25 0 25 33 0
54 11 61 89 60 64 -1 70 0 73 20 4 32 32 28 36 -5 3 -24 7 -27 42 -25 31 1 37
4 28 14 -6 7 -16 13 -24 13 -18 0 -24 13 -17 38 4 17 12 22 32 20 23 -2 27 -6
23 -25 -4 -19 0 -23 21 -23 35 0 41 14 23 50 -13 28 -13 31 5 40 25 14 24 30
-1 37 -11 3 -20 9 -20 14 0 12 27 11 35 -1 3 -6 26 -19 51 -30 30 -14 44 -27
44 -40 0 -12 -7 -20 -17 -21 -13 0 -11 -3 6 -10 34 -14 59 -2 75 34 9 20 15
25 15 15 1 -11 9 -18 20 -18 11 0 23 -4 26 -10 12 -19 35 -10 35 14 0 37 10
56 31 56 10 0 19 6 19 14 0 7 7 19 15 26 12 10 15 9 15 -4 0 -13 7 -15 39 -10
22 4 54 1 72 -5 34 -12 99 -5 99 10 0 5 -3 8 -7 8 -44 -7 -42 13 2 27 l35 11
0 -38 c0 -28 4 -39 15 -39 9 0 18 7 21 15 4 8 15 15 25 15 10 0 19 5 19 10 0
20 39 10 58 -15 11 -14 25 -25 31 -25 6 0 11 11 11 25 0 34 21 32 45 -5 18
-27 23 -29 64 -23 33 5 52 14 69 35 27 32 42 36 42 12 0 -13 7 -15 31 -10 17
3 37 6 43 6 6 1 -5 9 -24 20 -22 12 -28 19 -17 20 10 0 17 8 17 19 0 11 8 21
18 23 27 6 85 -18 93 -38 7 -18 8 -17 8 2 1 11 4 23 7 27 10 9 34 -4 34 -19 0
-8 7 -14 15 -14 9 0 15 -9 15 -25 0 -20 5 -25 27 -25 14 0 35 -7 45 -17 17
-15 18 -15 18 3 0 10 3 29 6 42 5 18 2 22 -17 22 -21 0 -22 1 -7 16 14 14 18
14 47 0 27 -15 30 -19 18 -37 -10 -16 -9 -21 2 -28 21 -14 53 -1 46 18 -4 9
-8 21 -9 28 -1 7 -5 16 -9 19 -14 14 -6 25 15 22 13 -2 23 -10 23 -18 0 -8 6
-21 13 -29 11 -11 17 -12 38 0 21 11 22 14 9 21 -27 16 -16 28 26 28 29 0 38
3 33 13 -9 14 35 -21 52 -43 11 -13 15 -12 32 3 19 17 21 17 30 1 13 -23 42
-11 42 17 0 18 3 19 15 9 17 -15 35 -5 35 20 0 11 10 20 25 24 39 10 47 -1 31
-39 -14 -33 -12 -75 4 -75 4 0 15 16 24 35 l17 35 21 -20 c27 -24 99 -28 118
-5 7 8 16 15 21 15 5 0 9 -7 9 -15 0 -8 7 -15 16 -15 14 0 14 3 3 16 -7 8 -25
22 -41 30 -46 24 -34 35 34 32 54 -3 63 -6 66 -23 6 -34 20 -40 43 -19 l22 19
-6 -39 c-8 -49 -10 -51 -44 -37 -23 9 -38 8 -85 -9 -32 -11 -64 -20 -73 -20
-8 0 -15 -7 -15 -15 0 -10 10 -15 30 -15 17 0 30 -4 30 -10 0 -5 5 -10 10 -10
6 0 10 7 10 15 0 27 27 4 38 -33 8 -25 8 -38 1 -43 -15 -9 0 -79 17 -79 8 0
14 11 15 28 0 15 3 36 6 47 2 11 5 36 5 55 1 34 2 35 38 35 35 1 37 -1 33 -26
-3 -22 1 -27 22 -31 14 -3 25 -1 25 3 0 5 9 9 20 9 11 0 20 7 20 15 0 9 7 29
15 45 l15 29 25 -23 c14 -13 25 -29 25 -37 0 -10 3 -10 12 -1 14 14 98 16 98
2 0 -6 3 -9 8 -8 4 1 18 -4 31 -11 27 -15 83 -7 101 14 7 8 26 15 43 15 24 0
28 -3 19 -12 -22 -22 -14 -41 13 -34 17 4 25 2 25 -7 0 -7 16 -31 36 -52 34
-38 37 -39 50 -20 8 10 14 25 14 32 0 7 5 13 10 13 6 0 10 -7 10 -15 0 -14 3
-14 24 1 25 15 25 15 36 -25 6 -23 15 -41 20 -41 6 0 5 -8 -1 -19 -7 -11 -9
-26 -4 -37 7 -16 9 -15 15 11 10 44 30 77 43 72 7 -2 16 -28 21 -58 6 -33 11
-45 14 -31 2 12 10 22 18 22 22 0 28 27 10 45 -23 23 -20 32 14 50 16 8 33 21
37 29 4 8 20 18 36 21 21 6 27 4 27 -9 0 -10 9 -16 24 -16 22 0 25 5 29 43 l4
42 1 -47 c2 -40 5 -48 22 -48 10 0 23 -8 29 -17 5 -10 18 -18 28 -18 10 0 19
-8 21 -17 3 -15 -4 -18 -42 -18 -25 0 -46 -4 -46 -10 0 -5 7 -10 15 -10 10 0
15 -10 15 -30 0 -23 4 -30 20 -30 21 0 27 15 10 25 -21 13 -9 25 26 25 31 0
37 4 51 38 l16 37 9 -27 c11 -33 24 -35 57 -9 20 15 31 17 58 9 40 -11 73 -3
73 19 0 8 5 13 12 11 24 -8 19 -27 -11 -43 -36 -18 -38 -31 -11 -64 17 -19 27
-23 55 -18 29 5 43 0 80 -29 25 -19 51 -34 58 -34 7 0 25 -6 39 -12 23 -11 25
-17 21 -48 -5 -29 -3 -33 8 -22 18 16 44 15 59 -3 17 -21 27 -19 33 6 3 13 10
18 17 14 7 -4 9 -16 7 -27 -6 -21 24 -40 31 -20 2 7 11 12 20 12 8 0 24 7 34
17 24 21 35 9 19 -21 -8 -14 -10 -30 -5 -37 6 -10 10 -7 14 11 5 21 14 26 49
31 30 4 47 1 57 -9 8 -8 24 -12 34 -9 21 5 29 -17 10 -28 -5 -3 -10 -13 -10
-21 0 -10 7 -13 23 -9 12 4 35 1 50 -4 22 -9 27 -17 28 -48 l1 -38 11 43 c7
31 15 42 28 42 13 0 19 7 19 24 0 22 20 50 20 29 0 -4 7 -17 15 -27 11 -15 17
-17 29 -7 7 6 18 11 22 10 5 -1 18 2 28 6 14 6 24 3 37 -13 9 -12 28 -22 42
-22 14 0 27 -7 31 -15 3 -8 17 -20 31 -25 23 -9 36 -40 16 -40 -5 0 -11 -12
-14 -27 l-5 -28 23 27 c24 28 72 36 87 14 4 -6 16 -5 33 4 25 13 28 12 51 -18
14 -18 32 -32 40 -32 8 0 14 -4 14 -10 0 -5 9 -10 20 -10 17 0 20 -7 20 -40 0
-34 -3 -40 -22 -41 -13 -1 0 -5 27 -9 42 -6 53 -4 71 12 23 20 68 17 82 -7 4
-6 18 -14 31 -18 19 -5 25 -1 34 24 12 32 25 37 33 14 4 -8 18 -15 31 -15 14
0 31 -7 37 -15 6 -9 24 -17 40 -19 19 -2 32 -11 37 -25 5 -12 17 -21 29 -21
16 0 20 6 20 34 0 48 9 66 32 66 14 0 18 -5 14 -16 -3 -9 -6 -31 -6 -50 0 -24
-4 -34 -16 -34 -20 0 -13 -24 9 -28 10 -2 17 3 17 12 0 9 5 16 10 16 14 0 12
-54 -2 -68 -9 -9 -7 -12 10 -12 19 0 22 6 22 35 0 22 8 44 21 58 19 21 21 21
33 5 7 -10 18 -18 23 -18 6 0 23 -6 37 -14 22 -11 24 -15 11 -20 -9 -3 -28 -6
-41 -6 -23 0 -24 -2 -24 -75 0 -57 3 -75 14 -75 7 0 20 -9 27 -19 8 -11 24
-22 36 -26 21 -6 22 -4 17 23 -4 19 -1 34 10 45 15 14 14 17 -6 32 -19 13 -20
17 -9 25 11 6 22 1 38 -16 17 -18 33 -24 70 -25 26 -1 40 -3 31 -6 -10 -2 -18
-10 -18 -16 0 -17 35 -68 42 -62 3 3 18 1 33 -5 33 -13 35 -11 24 18 -7 19
-12 21 -28 13 -28 -15 -46 9 -26 35 12 17 17 17 35 6 12 -7 25 -10 28 -6 4 4
1 9 -6 11 -6 3 -10 9 -6 14 3 5 12 3 20 -5 16 -17 19 -56 4 -56 -5 0 -10 -7
-10 -15 0 -8 3 -15 8 -15 4 0 12 -10 17 -22 6 -13 19 -27 31 -32 11 -5 25 -19
30 -30 6 -14 20 -22 42 -24 17 -2 32 -7 32 -12 0 -5 9 -12 21 -15 15 -5 25 -1
36 15 18 26 38 14 47 -30 3 -18 12 -30 21 -30 16 0 21 16 6 22 -5 2 -12 20
-16 41 -6 30 -4 37 9 37 22 0 36 -31 36 -79 0 -37 -2 -41 -25 -41 -32 0 -32
-13 -1 -30 15 -7 22 -18 19 -27 -3 -7 -2 -13 3 -11 12 4 76 -23 92 -39 7 -7
10 -13 6 -13 -4 0 1 -9 11 -20 10 -11 26 -20 37 -20 11 0 18 7 18 20 0 28 15
25 28 -5 15 -32 15 -32 -3 -39 -8 -3 -29 1 -47 8 -67 28 -75 28 -81 5 -7 -26
10 -62 24 -53 17 10 39 -17 39 -48 0 -21 -6 -31 -20 -35 -11 -3 -20 -13 -20
-23 0 -13 6 -17 20 -13 11 3 20 0 20 -6 0 -6 -13 -11 -30 -11 -16 0 -30 -3
-30 -7 0 -18 25 -73 33 -73 16 0 79 -69 72 -80 -12 -20 31 4 52 29 32 37 29
51 -12 51 -39 0 -39 -1 -25 35 9 25 11 25 35 9 l25 -16 0 1266 0 1266 -6000 0
-6000 0 0 -1799z m7067 1177 c-3 -8 -6 -5 -6 6 -1 11 2 17 5 13 3 -3 4 -12 1
-19z m-674 -15 c-7 -2 -19 -2 -25 0 -7 3 -2 5 12 5 14 0 19 -2 13 -5z m687
-56 c0 -19 -10 -27 -26 -20 -21 8 -17 33 6 33 11 0 20 -6 20 -13z m60 9 c0 -3
-4 -8 -10 -11 -5 -3 -10 -1 -10 4 0 6 5 11 10 11 6 0 10 -2 10 -4z m60 0 c0
-9 -30 -14 -35 -6 -4 6 3 10 14 10 12 0 21 -2 21 -4z m380 -15 c0 -6 -4 -13
-10 -16 -5 -3 -10 1 -10 9 0 9 5 16 10 16 6 0 10 -4 10 -9z m-605 -11 c3 -5 1
-10 -4 -10 -6 0 -11 5 -11 10 0 6 2 10 4 10 3 0 8 -4 11 -10z m245 0 c0 -5
-12 -10 -27 -9 -25 0 -26 1 -8 9 27 12 35 12 35 0z m-1006 -8 c3 -5 30 -7 61
-4 48 4 59 1 90 -22 33 -26 47 -56 25 -56 -5 0 -10 5 -10 10 0 6 -9 10 -19 10
-11 0 -27 9 -35 21 -14 21 -15 21 -48 3 -18 -11 -36 -23 -39 -27 -3 -4 -11 -1
-18 7 -10 12 -18 13 -33 5 -28 -15 -41 1 -29 34 10 26 43 37 55 19z m1394 -14
c18 -18 15 -28 -8 -28 -13 0 -20 7 -20 20 0 23 10 26 28 8z m345 -2 c7 -16 -1
-26 -20 -26 -7 0 -13 9 -13 20 0 23 25 27 33 6z m-2123 -57 c0 -5 -9 -9 -20
-9 -19 0 -27 20 -13 33 7 8 33 -11 33 -24z m-470 -15 c0 -8 -3 -14 -7 -14 -13
1 -43 27 -37 32 10 10 44 -4 44 -18z m2658 -4 c13 -21 9 -40 -8 -40 -4 0 -7 8
-5 18 1 9 -2 23 -8 30 -5 6 -5 12 -1 12 5 0 15 -9 22 -20z m-2078 1 c0 -15
-31 -42 -44 -38 -6 2 -13 12 -15 22 -2 14 2 17 18 12 12 -3 21 -1 21 4 0 5 5
9 10 9 6 0 10 -4 10 -9z m1966 -5 c15 -16 19 -66 5 -66 -5 0 -7 9 -4 20 4 14
0 20 -11 20 -9 0 -16 8 -16 20 0 24 6 25 26 6z m244 4 c-19 -13 -30 -13 -30 0
0 6 10 10 23 10 18 0 19 -2 7 -10z m-2340 -20 c0 -11 -4 -20 -10 -20 -5 0 -10
9 -10 20 0 11 5 20 10 20 6 0 10 -9 10 -20z m-930 -1 c0 6 7 11 15 11 17 0 34
-29 28 -47 -5 -15 -43 -17 -43 -3 0 6 8 10 17 10 12 0 14 3 6 11 -8 8 -17 7
-31 -2 -24 -15 -37 -7 -28 17 5 13 9 14 21 4 10 -9 15 -9 15 -1z m610 -24 c0
-20 -5 -25 -25 -25 -31 0 -32 14 -3 34 29 20 28 21 28 -9z m2620 4 c0 -5 -7
-9 -15 -9 -8 0 -15 7 -15 15 0 9 6 12 15 9 8 -4 15 -10 15 -15z m29 -11 c12
-15 11 -18 -3 -18 -10 0 -16 8 -16 22 0 12 1 19 3 17 1 -2 9 -12 16 -21z
m-2773 -13 c15 -15 10 -40 -6 -30 -5 3 -11 1 -15 -5 -10 -16 -25 -12 -25 8 0
16 17 42 28 42 2 0 10 -7 18 -15z m551 -1 c7 -19 -9 -37 -30 -32 -11 2 -12 9
-6 26 10 26 27 29 36 6z m2627 -15 c-8 -13 -21 -11 -27 5 -4 10 0 12 14 9 10
-3 16 -9 13 -14z m103 -1 c-3 -8 -6 -5 -6 6 -1 11 2 17 5 13 3 -3 4 -12 1 -19z
m-3131 -66 c-12 -12 -18 8 -10 35 l8 28 4 -28 c2 -16 1 -31 -2 -35z m-260 21
c-10 -10 -19 5 -10 18 6 11 8 11 12 0 2 -7 1 -15 -2 -18z m3304 7 c0 -21 -24
-27 -49 -11 -19 12 -4 31 25 31 17 0 24 -5 24 -20z m-4380 -33 c11 -5 9 -6 -4
-4 -11 1 -21 9 -23 17 -3 10 -2 11 4 4 4 -6 15 -14 23 -17z m300 2 c0 -11 -4
-17 -10 -14 -5 3 -10 13 -10 21 0 8 5 14 10 14 6 0 10 -9 10 -21z m940 11 c0
-5 8 -10 17 -10 9 0 14 -2 11 -5 -8 -9 -68 7 -62 16 7 12 34 11 34 -1z m3890
-50 c0 -5 -5 -10 -11 -10 -5 0 -7 5 -4 10 3 6 8 10 11 10 2 0 4 -4 4 -10z
m210 0 c0 -5 -9 -10 -20 -10 -11 0 -20 5 -20 10 0 6 9 10 20 10 11 0 20 -4 20
-10z m-5480 -25 c0 -8 -7 -15 -16 -15 -14 0 -14 3 -4 15 7 8 14 15 16 15 2 0
4 -7 4 -15z m380 -24 c-10 -20 -52 -21 -58 -3 -2 7 6 12 17 12 13 0 21 6 21
16 0 13 3 14 15 4 10 -8 12 -17 5 -29z m-173 -18 c-3 -10 -5 -4 -5 12 0 17 2
24 5 18 2 -7 2 -21 0 -30z m5251 -18 c10 -20 9 -29 -5 -44 -17 -20 -37 -18
-63 8 -13 13 -13 14 2 9 11 -5 20 2 28 23 15 36 23 36 38 4z m52 -67 c7 -18
15 -35 17 -38 1 -3 -9 -11 -25 -18 -17 -8 -28 -9 -30 -2 -2 5 -13 10 -24 10
-11 0 -18 5 -15 13 2 6 14 11 25 9 19 -3 22 2 22 27 0 40 12 39 30 -1z m130
-16 c0 -10 -54 -42 -71 -42 -6 0 0 11 15 25 26 24 56 33 56 17z m271 -99 c-10
-17 -10 -16 -11 3 0 23 13 41 18 25 2 -6 -1 -18 -7 -28z m-6491 -2 c0 -10 -6
-24 -14 -30 -21 -18 -31 5 -16 35 14 26 30 23 30 -5z m6560 9 c0 -13 -7 -20
-20 -20 -23 0 -26 10 -8 28 18 18 28 15 28 -8z m-115 -39 c7 -12 -31 -25 -46
-15 -8 4 -7 9 2 15 18 11 36 11 44 0z m335 -31 c0 -5 -4 -10 -10 -10 -5 0 -10
5 -10 10 0 6 5 10 10 10 6 0 10 -4 10 -10z m-7000 -84 c0 -27 -27 -38 -71 -29
-16 3 -29 1 -29 -4 0 -6 -21 -18 -46 -28 -44 -16 -46 -16 -59 1 -17 23 -17 25
-5 44 8 13 10 12 10 -2 0 -11 8 -18 20 -18 13 0 20 7 20 20 0 26 47 46 72 31
24 -15 43 -14 58 4 16 19 30 10 30 -19z m7544 28 c25 -10 19 -34 -8 -34 -28 0
-54 25 -34 33 19 8 24 8 42 1z m-276 -36 c3 -17 -35 -32 -44 -17 -8 13 16 41
30 36 6 -2 12 -11 14 -19z m-7528 -8 c0 -5 -4 -10 -10 -10 -5 0 -10 5 -10 10
0 6 5 10 10 10 6 0 10 -4 10 -10z m55 -98 c-7 -8 -45 10 -40 19 4 5 14 3 25
-3 11 -7 17 -14 15 -16z m85 18 c0 -5 -10 -10 -22 -10 -19 0 -20 2 -8 10 19
13 30 13 30 0z m-144 -66 c-7 -27 -30 -31 -71 -12 -37 17 -31 37 15 44 22 4
40 12 40 18 0 6 5 3 11 -7 6 -10 8 -29 5 -43z m7904 31 c0 -14 -4 -25 -10 -25
-5 0 -10 4 -10 9 0 5 -3 16 -6 25 -4 11 -1 16 10 16 10 0 16 -9 16 -25z m79
-47 c0 -18 -3 -27 -6 -20 -2 6 -18 12 -35 12 -25 0 -28 2 -18 14 6 8 21 17 33
19 12 2 23 5 25 6 1 0 2 -14 1 -31z m-8319 2 c0 -5 -19 -9 -42 -9 -40 1 -41 2
-13 9 44 11 55 11 55 0z m294 -32 c10 -14 12 -26 6 -32 -14 -14 -60 13 -60 36
0 26 35 23 54 -4z m-344 -13 c0 -16 -6 -25 -15 -25 -15 0 -21 31 -8 43 13 14
23 6 23 -18z m8774 -144 c-17 -19 -28 -9 -19 18 5 17 9 18 20 8 11 -10 11 -14
-1 -26z m-171 22 c-7 -2 -19 -2 -25 0 -7 3 -2 5 12 5 14 0 19 -2 13 -5z
m-8737 -74 c12 -21 -13 -32 -36 -16 -15 11 -18 16 -8 20 22 9 36 8 44 -4z
m9087 -69 c-3 -11 -9 -20 -14 -20 -10 0 -12 33 -3 43 12 12 22 -3 17 -23z m78
-14 c3 -20 2 -39 -3 -42 -15 -10 -38 17 -38 46 0 54 32 52 41 -4z m42 -83 c-7
-2 -19 -2 -25 0 -7 3 -2 5 12 5 14 0 19 -2 13 -5z m-9803 -79 c0 -2 -12 -4
-27 -4 -21 0 -24 3 -14 9 13 8 41 5 41 -5z m195 6 c3 -5 -3 -10 -15 -10 -12 0
-18 5 -15 10 3 6 10 10 15 10 5 0 12 -4 15 -10z m9865 -378 c1 -15 2 -15 15 2
14 19 15 19 15 -7 0 -21 -5 -27 -23 -27 -28 0 -56 39 -36 51 17 10 29 2 29
-19z m-10666 -48 c11 -29 6 -44 -14 -44 -11 0 -20 6 -20 14 0 21 11 46 20 46
4 0 11 -7 14 -16z m96 6 c0 -5 -4 -10 -10 -10 -5 0 -10 5 -10 10 0 6 5 10 10
10 6 0 10 -4 10 -10z m50 0 c0 -5 -9 -10 -20 -10 -11 0 -20 5 -20 10 0 6 9 10
20 10 11 0 20 -4 20 -10z m-105 -60 c3 -5 1 -10 -4 -10 -6 0 -11 5 -11 10 0 6
2 10 4 10 3 0 8 -4 11 -10z m45 0 c0 -5 -4 -10 -10 -10 -5 0 -10 5 -10 10 0 6
5 10 10 10 6 0 10 -4 10 -10z m-180 -27 c-1 -19 -17 -32 -38 -30 -28 2 -28 11
1 25 27 13 37 14 37 5z m-40 -133 c0 -5 -5 -10 -11 -10 -5 0 -7 5 -4 10 3 6 8
10 11 10 2 0 4 -4 4 -10z m-206 -41 c-3 -5 -10 -7 -15 -3 -5 3 -7 10 -3 15 3
5 10 7 15 3 5 -3 7 -10 3 -15z m-146 -237 c-2 -9 -11 -18 -21 -20 -14 -3 -17
3 -15 26 2 26 5 29 21 21 10 -6 17 -18 15 -27z m66 -39 c4 -8 -3 -13 -18 -13
-24 0 -41 24 -31 41 7 10 42 -10 49 -28z m-94 -59 c14 -35 -9 -70 -33 -51 -15
11 -15 15 0 45 8 17 17 32 19 32 3 0 9 -12 14 -26z m-60 -19 c0 -8 -4 -15 -10
-15 -5 0 -10 7 -10 15 0 8 5 15 10 15 6 0 10 -7 10 -15z m-230 -110 c0 -8 -4
-15 -10 -15 -5 0 -10 7 -10 15 0 8 5 15 10 15 6 0 10 -7 10 -15z m-123 -137
c-3 -8 -6 -5 -6 6 -1 11 2 17 5 13 3 -3 4 -12 1 -19z m13 -37 c0 -6 -4 -13
-10 -16 -5 -3 -10 1 -10 9 0 9 5 16 10 16 6 0 10 -4 10 -9z m67 -23 c-3 -8 -6
-5 -6 6 -1 11 2 17 5 13 3 -3 4 -12 1 -19z m-117 -128 c0 -5 -4 -10 -10 -10
-5 0 -10 5 -10 10 0 6 5 10 10 10 6 0 10 -4 10 -10z m-110 -22 c0 -17 -20 -47
-20 -31 0 6 -3 18 -6 27 -4 11 -1 16 10 16 9 0 16 -6 16 -12z"/>
<path d="M6760 15183 c0 -10 -3 -27 -5 -38 -4 -15 1 -23 21 -32 23 -11 25 -10
18 5 -4 9 -9 32 -12 50 -4 33 -22 45 -22 15z"/>
<path d="M7417 15193 c-12 -11 -8 -40 8 -53 13 -11 15 -7 15 24 0 34 -8 44
-23 29z"/>
<path d="M7165 15170 c-9 -15 -5 -18 30 -22 21 -2 30 1 30 12 0 18 -50 26 -60
10z"/>
<path d="M6721 15136 c-1 -11 -8 -28 -18 -38 -13 -14 -13 -18 -2 -18 21 0 37
32 28 55 -7 19 -8 19 -8 1z"/>
<path d="M6120 15110 c0 -13 11 -13 30 0 12 8 11 10 -7 10 -13 0 -23 -4 -23
-10z"/>
<path d="M7046 15101 c-17 -18 -17 -20 2 -30 22 -12 32 -6 32 20 0 27 -15 31
-34 10z"/>
<path d="M6080 15090 c0 -5 4 -10 9 -10 6 0 13 5 16 10 3 6 -1 10 -9 10 -9 0
-16 -4 -16 -10z"/>
<path d="M6180 15091 c0 -13 29 -35 37 -28 7 8 -15 37 -28 37 -5 0 -9 -4 -9
-9z"/>
<path d="M6355 15090 c3 -5 15 -10 26 -10 10 0 19 5 19 10 0 6 -12 10 -26 10
-14 0 -23 -4 -19 -10z"/>
<path d="M6442 15082 c-7 -5 -10 -16 -6 -25 8 -21 11 -21 30 -3 27 28 9 48
-24 28z"/>
<path d="M6640 15064 c0 -14 3 -14 15 -4 8 7 15 14 15 16 0 2 -7 4 -15 4 -8 0
-15 -7 -15 -16z"/>
<path d="M8030 15055 c-10 -12 -10 -15 4 -15 9 0 16 7 16 15 0 8 -2 15 -4 15
-2 0 -9 -7 -16 -15z"/>
<path d="M6347 15044 c-8 -8 1 -24 14 -24 5 0 9 7 9 15 0 15 -12 20 -23 9z"/>
<path d="M6640 15019 c0 -24 23 -21 28 4 2 10 -3 17 -12 17 -10 0 -16 -9 -16
-21z"/>
<path d="M7298 15028 c9 -9 15 -9 24 0 9 9 7 12 -12 12 -19 0 -21 -3 -12 -12z"/>
<path d="M7480 15030 c0 -5 5 -10 10 -10 6 0 10 5 10 10 0 6 -4 10 -10 10 -5
0 -10 -4 -10 -10z"/>
<path d="M7928 15033 c7 -3 16 -2 19 1 4 3 -2 6 -13 5 -11 0 -14 -3 -6 -6z"/>
<path d="M8170 15016 c0 -9 7 -16 16 -16 9 0 14 5 12 12 -6 18 -28 21 -28 4z"/>
<path d="M7650 15005 c-7 -9 -11 -18 -8 -20 9 -10 38 7 38 21 0 18 -14 18 -30
-1z"/>
<path d="M8260 15000 c0 -11 5 -20 10 -20 6 0 10 9 10 20 0 11 -4 20 -10 20
-5 0 -10 -9 -10 -20z"/>
<path d="M8720 15002 c0 -10 -3 -21 -6 -25 -10 -10 -12 -97 -3 -97 5 0 9 7 9
15 0 9 7 27 16 40 15 23 15 25 -2 25 -22 0 -10 13 14 15 9 1 27 5 38 8 12 4
33 3 47 -2 15 -6 29 -6 32 -1 7 11 -10 21 -43 25 -15 1 -44 6 -64 9 -33 6 -38
5 -38 -12z"/>
<path d="M5690 14970 c-11 -7 -7 -10 18 -10 20 0 31 4 27 10 -8 13 -26 13 -45
0z"/>
<path d="M5077 14945 c6 -17 25 -15 31 3 2 7 -5 12 -17 12 -14 0 -19 -5 -14
-15z"/>
<path d="M7347 14953 c-11 -10 -8 -43 3 -43 6 0 10 11 10 25 0 26 -2 29 -13
18z"/>
<path d="M5146 14921 c-9 -14 4 -41 20 -41 8 0 14 6 14 14 0 18 -26 40 -34 27z"/>
<path d="M5560 14909 c0 -5 5 -7 10 -4 6 3 10 8 10 11 0 2 -4 4 -10 4 -5 0
-10 -5 -10 -11z"/>
<path d="M5346 14895 c-3 -8 -1 -15 4 -15 6 0 10 7 10 15 0 8 -2 15 -4 15 -2
0 -6 -7 -10 -15z"/>
<path d="M5380 14896 c0 -9 5 -16 10 -16 6 0 10 4 10 9 0 6 -4 13 -10 16 -5 3
-10 -1 -10 -9z"/>
<path d="M8986 14886 c-8 -34 2 -55 30 -62 13 -3 24 -10 24 -15 0 -5 8 -9 18
-9 16 1 16 1 0 14 -10 7 -18 20 -18 28 0 9 -7 21 -15 28 -8 7 -15 19 -15 26 0
23 -17 16 -24 -10z"/>
<path d="M9077 14843 c-14 -13 -6 -23 18 -23 16 0 25 6 25 15 0 15 -31 21 -43
8z"/>
<path d="M4470 14816 c0 -8 4 -17 8 -20 4 -2 8 4 8 15 0 10 -4 19 -8 19 -4 0
-8 -6 -8 -14z"/>
<path d="M4775 14810 c-3 -5 1 -10 9 -10 9 0 16 5 16 10 0 6 -4 10 -9 10 -6 0
-13 -4 -16 -10z"/>
<path d="M4740 14775 c0 -8 5 -15 10 -15 6 0 10 7 10 15 0 8 -4 15 -10 15 -5
0 -10 -7 -10 -15z"/>
<path d="M9360 14740 c0 -11 2 -20 5 -20 2 0 9 9 15 20 9 16 8 20 -5 20 -8 0
-15 -9 -15 -20z"/>
<path d="M10072 14540 c0 -14 2 -19 5 -12 2 6 2 18 0 25 -3 6 -5 1 -5 -13z"/>
<path d="M10240 14460 c0 -11 7 -20 15 -20 8 0 15 9 15 20 0 11 -7 20 -15 20
-8 0 -15 -9 -15 -20z"/>
<path d="M10384 14458 c3 -13 6 -32 6 -43 0 -18 1 -18 16 3 18 26 10 62 -13
62 -11 0 -14 -6 -9 -22z"/>
<path d="M3220 14453 c1 -29 25 -53 54 -53 35 0 34 23 -3 49 -36 26 -51 27
-51 4z"/>
<path d="M10440 14425 c0 -27 9 -32 28 -13 18 18 14 38 -8 38 -15 0 -20 -7
-20 -25z"/>
<path d="M10247 14380 c-4 -15 0 -20 14 -20 12 0 19 7 19 20 0 11 -6 20 -14
20 -7 0 -16 -9 -19 -20z"/>
<path d="M10420 14358 c1 -40 2 -42 16 -23 17 23 15 56 -3 63 -9 2 -13 -9 -13
-40z"/>
<path d="M10783 14383 c-18 -7 -16 -33 2 -33 8 0 15 9 15 20 0 11 -1 20 -2 19
-2 0 -9 -3 -15 -6z"/>
<path d="M10640 14365 c0 -8 7 -15 15 -15 8 0 15 7 15 15 0 8 -7 15 -15 15 -8
0 -15 -7 -15 -15z"/>
<path d="M3120 14358 c0 -9 -13 -21 -30 -28 -28 -12 -42 -40 -20 -40 6 0 10 7
10 15 0 8 9 15 19 15 19 0 39 35 27 47 -3 4 -6 -1 -6 -9z"/>
<path d="M10618 14313 c7 -3 16 -2 19 1 4 3 -2 6 -13 5 -11 0 -14 -3 -6 -6z"/>
<path d="M3110 14256 c0 -8 4 -17 9 -20 5 -4 7 3 4 14 -6 23 -13 26 -13 6z"/>
<path d="M10925 14260 c-8 -13 -1 -24 14 -19 6 3 7 10 2 18 -6 10 -10 10 -16
1z"/>
<path d="M2951 14224 c0 -11 3 -14 6 -6 3 7 2 16 -1 19 -3 4 -6 -2 -5 -13z"/>
<path d="M11020 14220 c0 -5 5 -10 10 -10 6 0 10 5 10 10 0 6 -4 10 -10 10 -5
0 -10 -4 -10 -10z"/>
<path d="M2700 14145 c0 -8 5 -15 10 -15 6 0 10 -7 10 -15 0 -17 16 -20 25 -4
4 6 -2 19 -14 30 -24 23 -31 24 -31 4z"/>
<path d="M2625 14120 c-3 -5 -1 -10 4 -10 6 0 11 -7 11 -15 0 -8 5 -15 10 -15
15 0 12 19 -4 36 -9 9 -17 10 -21 4z"/>
<path d="M2497 14113 c-16 -15 -6 -33 18 -33 23 0 24 2 15 20 -11 21 -22 25
-33 13z"/>
<path d="M11281 14080 c0 -29 1 -32 10 -17 7 11 7 23 0 35 -9 14 -10 11 -10
-18z"/>
<path d="M2400 14034 c0 -23 6 -34 25 -42 14 -7 32 -12 40 -12 8 0 15 -4 15
-8 0 -4 16 -8 36 -9 45 -1 43 23 -3 52 -18 11 -34 27 -36 35 -2 8 -8 1 -12
-17 -8 -36 -45 -48 -45 -15 0 9 -5 24 -10 32 -7 11 -10 8 -10 -16z"/>
<path d="M2571 14003 c-18 -19 -10 -25 12 -8 10 7 15 15 10 18 -4 3 -14 -2
-22 -10z"/>
<path d="M11310 14004 c0 -17 22 -14 28 4 2 7 -3 12 -12 12 -9 0 -16 -7 -16
-16z"/>
<path d="M11495 13970 c-7 -12 2 -30 16 -30 12 0 12 27 0 35 -5 3 -12 1 -16
-5z"/>
<path d="M2162 13898 c2 -12 10 -23 18 -23 22 0 19 39 -3 43 -15 3 -18 -1 -15
-20z"/>
<path d="M2112 13880 c-19 -31 -15 -40 18 -40 32 0 38 14 16 43 -17 21 -18 21
-34 -3z"/>
<path d="M11362 13803 c4 -22 43 -25 43 -3 0 8 -11 16 -23 18 -19 3 -23 0 -20
-15z"/>
<path d="M2460 13795 c0 -8 5 -15 10 -15 6 0 10 7 10 15 0 8 -4 15 -10 15 -5
0 -10 -7 -10 -15z"/>
<path d="M1921 13766 c12 -10 79 -16 79 -6 0 5 -19 10 -42 10 -23 0 -39 -2
-37 -4z"/>
<path d="M11780 13746 c0 -8 5 -18 10 -21 6 -3 10 3 10 14 0 12 -4 21 -10 21
-5 0 -10 -6 -10 -14z"/>
<path d="M1887 13743 c-12 -11 -8 -23 8 -23 8 0 15 7 15 15 0 16 -12 20 -23 8z"/>
<path d="M2066 13722 c-2 -4 -1 -14 5 -22 7 -12 9 -10 9 8 0 23 -5 28 -14 14z"/>
<path d="M11796 13615 c-3 -8 -1 -15 4 -15 6 0 10 7 10 15 0 8 -2 15 -4 15 -2
0 -6 -7 -10 -15z"/>
<path d="M11780 13564 c-11 -12 -10 -18 3 -32 16 -15 18 -15 34 0 13 14 14 20
3 32 -7 9 -16 16 -20 16 -4 0 -13 -7 -20 -16z"/>
<path d="M1634 13526 c-4 -11 0 -24 9 -34 15 -14 17 -14 23 2 4 11 0 24 -9 34
-15 14 -17 14 -23 -2z"/>
<path d="M1930 13386 c0 -16 5 -26 15 -26 8 0 15 6 15 14 0 7 -7 19 -15 26
-13 11 -15 8 -15 -14z"/>
<path d="M11853 13385 c-8 -22 6 -33 17 -15 13 20 12 30 0 30 -6 0 -13 -7 -17
-15z"/>
<path d="M1116 13124 c-4 -10 1 -22 11 -30 23 -17 28 -17 43 1 10 11 9 18 -3
30 -20 20 -43 19 -51 -1z"/>
<path d="M958 12976 c-4 -17 -1 -23 9 -19 8 3 13 -3 13 -17 0 -15 5 -20 17
-18 22 4 30 38 10 38 -8 0 -17 9 -20 20 -7 27 -24 25 -29 -4z"/>
<path d="M607 12694 c-4 -4 -4 -18 -1 -30 4 -16 2 -24 -7 -24 -7 0 -10 -3 -6
-6 3 -3 15 -3 26 1 15 4 21 15 21 36 0 27 -17 39 -33 23z"/>
<path d="M633 12611 c-7 -11 -9 -22 -5 -24 13 -8 54 13 50 25 -7 21 -32 20
-45 -1z"/>
<path d="M551 12580 c-5 -17 -8 -37 -5 -45 3 -7 1 -23 -6 -34 -9 -17 -8 -21 5
-21 8 0 15 7 15 15 0 9 7 26 15 39 12 18 13 30 6 50 -13 33 -17 33 -30 -4z"/>
<path d="M620 12551 c0 -16 28 -20 40 -5 10 12 8 14 -14 14 -14 0 -26 -4 -26
-9z"/>
<path d="M540 12300 c0 -11 5 -20 10 -20 6 0 10 9 10 20 0 11 -4 20 -10 20 -5
0 -10 -9 -10 -20z"/>
<path d="M0 12095 c0 -35 8 -41 60 -46 51 -5 60 0 57 33 -3 34 -21 44 -89 47
-25 1 -28 -2 -28 -34z"/>
<path d="M210 12076 c0 -2 7 -6 15 -10 8 -3 15 -1 15 4 0 6 -7 10 -15 10 -8 0
-15 -2 -15 -4z"/>
<path d="M0 11965 c0 -24 5 -35 15 -35 8 0 19 -9 25 -20 6 -11 15 -20 19 -20
13 0 20 37 9 48 -6 6 -7 16 -2 24 6 9 10 7 14 -10 6 -29 24 -30 28 -2 4 27
-40 49 -62 31 -16 -14 -40 -6 -31 10 4 5 1 9 -4 9 -6 0 -11 -16 -11 -35z"/>
<path d="M164 11909 c-7 -11 12 -29 31 -29 19 0 38 18 31 29 -4 6 -18 11 -31
11 -13 0 -27 -5 -31 -11z"/>
<path d="M0 11830 c0 -5 4 -10 9 -10 6 0 13 5 16 10 3 6 -1 10 -9 10 -9 0 -16
-4 -16 -10z"/>
<path d="M40 11560 c0 -5 9 -10 20 -10 11 0 20 5 20 10 0 6 -9 10 -20 10 -11
0 -20 -4 -20 -10z"/>
<path d="M9353 10653 c-17 -2 -37 -11 -43 -19 -7 -8 -18 -14 -24 -14 -6 0 -46
-33 -88 -72 -42 -40 -94 -89 -115 -109 -21 -20 -45 -46 -53 -58 -8 -12 -30
-32 -47 -44 -18 -12 -33 -27 -33 -32 0 -6 -8 -17 -17 -26 -10 -8 -38 -39 -63
-68 -25 -30 -62 -70 -84 -90 -21 -20 -47 -53 -57 -73 -11 -21 -23 -38 -27 -38
-8 0 -114 -135 -125 -160 -4 -8 -15 -27 -25 -42 -9 -14 -34 -55 -54 -90 -20
-34 -45 -72 -55 -83 -22 -24 -90 -127 -116 -175 -11 -19 -26 -39 -33 -43 -8
-4 -14 -15 -14 -23 0 -8 -9 -31 -20 -51 -11 -21 -20 -43 -20 -50 0 -7 -4 -13
-10 -13 -5 0 -10 -7 -10 -16 0 -10 -15 -40 -34 -68 -18 -28 -41 -76 -50 -106
-10 -30 -21 -64 -26 -75 -13 -31 -23 -67 -27 -105 -3 -19 -6 -44 -7 -55 -1
-11 -10 -36 -18 -55 -21 -48 -29 -98 -18 -105 6 -3 10 -15 10 -26 0 -17 -8
-19 -85 -19 -68 0 -89 4 -102 18 -14 13 -29 16 -67 12 -46 -5 -50 -7 -62 -41
-8 -24 -12 -107 -13 -244 -1 -114 -3 -211 -5 -214 -7 -10 -19 -189 -22 -331
-5 -175 -21 -439 -29 -459 -4 -9 -8 -124 -11 -256 -2 -132 -9 -274 -15 -315
-17 -113 -15 -270 4 -337 18 -61 19 -65 9 -59 -7 4 -13 -16 -18 -51 -10 -78
11 -220 37 -255 15 -22 16 -28 5 -28 -12 0 -11 -9 5 -52 10 -29 19 -54 19 -55
0 -2 6 -3 14 -3 7 0 21 -11 30 -25 9 -14 22 -25 29 -25 7 0 45 -14 85 -30 40
-17 77 -28 82 -25 5 3 11 1 14 -4 4 -5 23 -5 48 0 100 22 123 45 106 106 -6
21 -5 40 2 52 5 11 11 38 12 61 1 22 5 43 9 46 11 6 16 -23 23 -115 3 -41 10
-79 16 -85 5 -5 10 -26 10 -46 0 -40 40 -164 59 -183 6 -6 11 -23 11 -38 0
-15 4 -30 9 -34 5 -3 15 -31 21 -63 17 -84 42 -165 57 -183 7 -8 13 -21 13
-28 0 -14 29 -74 40 -81 14 -10 60 -90 60 -105 0 -9 7 -18 15 -21 8 -4 15 -12
15 -19 0 -7 7 -18 14 -25 8 -6 22 -35 32 -63 9 -29 34 -82 55 -119 21 -36 39
-71 39 -77 0 -6 4 -19 10 -29 5 -9 14 -28 20 -42 11 -27 13 -31 81 -135 25
-38 49 -81 54 -93 4 -13 19 -43 34 -65 16 -23 36 -57 47 -74 10 -18 24 -33 31
-33 7 0 13 -4 13 -8 0 -17 136 -144 169 -158 20 -8 52 -30 71 -48 31 -29 59
-50 109 -81 8 -5 20 -15 26 -21 5 -7 36 -21 68 -33 33 -12 65 -28 74 -36 8 -8
22 -15 32 -15 9 0 22 -5 28 -11 7 -7 47 -14 90 -17 52 -3 84 -10 97 -21 13
-12 37 -16 90 -15 63 0 78 4 131 35 33 19 89 56 124 82 35 26 68 47 73 47 11
0 88 78 88 90 0 4 12 19 28 32 21 17 27 32 27 60 0 20 2 35 4 33 2 -2 13 8 26
23 31 38 35 136 5 154 -16 10 -18 20 -14 49 7 43 -30 121 -76 163 -17 15 -30
36 -30 50 0 21 -27 56 -43 56 -3 0 -23 12 -44 26 -21 14 -48 30 -60 35 -26 10
-31 39 -8 39 9 0 28 11 42 24 14 13 38 27 54 30 28 5 58 25 88 59 8 9 20 17
26 17 17 0 34 36 41 90 5 40 3 59 -12 88 -21 41 -53 82 -65 82 -5 0 -19 11
-33 25 -14 14 -34 25 -45 25 -11 0 -22 4 -25 9 -3 5 -14 8 -24 6 -9 -2 -29 -6
-44 -9 -34 -8 -75 -63 -59 -79 15 -15 14 -77 -1 -77 -20 0 -78 44 -84 65 -4
11 -19 31 -35 45 -20 19 -29 40 -34 76 -3 27 -13 67 -21 89 -8 23 -14 53 -14
67 0 15 -5 30 -10 33 -6 3 -7 17 -4 29 3 13 -2 40 -10 61 -9 20 -13 42 -9 48
4 6 8 48 10 93 1 46 3 86 4 91 1 4 -1 16 -6 27 -5 11 -3 26 4 38 7 11 9 28 6
39 -4 11 -1 36 6 56 9 27 9 38 1 41 -6 2 -14 20 -17 40 -8 45 -39 106 -77 150
-15 18 -28 39 -28 47 0 47 -65 108 -157 149 -24 11 -43 25 -43 33 0 7 -7 13
-15 13 -8 0 -15 4 -15 8 0 10 -77 62 -91 62 -5 0 -21 13 -37 29 -15 16 -45 34
-67 40 -22 6 -58 23 -80 38 -36 25 -49 28 -120 28 l-80 0 33 33 c20 20 43 32
59 32 14 0 41 11 59 25 18 14 37 25 43 25 6 0 11 3 11 8 0 6 105 62 198 105
13 6 35 22 50 35 28 26 63 48 130 83 24 12 58 35 75 51 18 16 42 31 55 34 12
4 22 12 22 20 0 8 5 14 10 14 6 0 10 6 10 14 0 8 14 17 30 21 17 4 30 10 30
14 0 16 76 87 112 105 21 11 44 28 52 40 7 12 26 34 41 50 16 17 25 36 22 47
-3 10 4 25 14 35 10 9 16 21 13 25 -3 5 5 9 17 9 20 0 21 4 16 48 -3 26 -13
71 -21 101 -9 31 -12 59 -7 65 15 19 23 127 10 142 -17 21 -14 112 5 133 9 10
16 31 16 48 0 26 -5 33 -31 42 -18 6 -39 11 -47 11 -21 0 -62 51 -62 76 0 12
-7 27 -15 34 -8 7 -15 25 -15 41 0 15 -5 40 -11 56 -10 25 -17 142 -33 558 -2
75 0 132 7 153 10 29 9 39 -9 72 -19 33 -20 40 -7 53 22 22 27 149 9 232 -9
44 -11 74 -5 80 12 12 12 120 0 143 -16 29 -24 56 -22 71 4 25 224 221 249
221 4 0 19 13 32 28 14 15 33 31 43 35 9 3 17 13 17 22 0 8 5 15 10 15 10 0
99 73 163 132 35 33 36 76 2 108 -22 20 -29 22 -43 12 -9 -7 -28 -17 -40 -22
-13 -6 -40 -27 -60 -49 -21 -21 -57 -50 -82 -64 -25 -15 -65 -45 -90 -68 -25
-23 -52 -44 -61 -48 -45 -17 -248 -213 -447 -430 -48 -52 -105 -112 -127 -133
-22 -22 -71 -69 -110 -106 -38 -37 -92 -94 -120 -126 -27 -33 -62 -71 -76 -85
-14 -14 -29 -34 -32 -43 -15 -42 -59 -9 -50 37 8 45 7 98 -4 235 -13 148 -6
353 13 430 8 30 14 67 14 82 0 27 38 108 65 138 8 9 15 31 15 48 0 17 5 34 10
37 14 9 12 43 -2 48 -25 8 16 61 144 188 70 69 156 146 192 170 35 24 67 51
69 60 5 20 -41 76 -68 81 -11 3 -34 3 -52 1z m-555 -932 c20 -12 4 -57 -31
-87 -24 -21 -28 -27 -16 -35 9 -6 15 -4 17 6 2 8 7 15 12 15 5 0 6 -46 3 -103
-4 -73 -2 -115 7 -143 8 -21 12 -56 11 -76 -1 -21 1 -43 5 -50 9 -15 13 -32
15 -68 1 -14 8 -44 16 -66 13 -38 18 -42 46 -40 29 1 32 -1 30 -29 -2 -55 -24
-125 -44 -138 -13 -9 -21 -31 -25 -71 -4 -37 -10 -53 -15 -44 -7 10 -9 10 -9
1 0 -7 -3 -12 -7 -12 -33 5 -51 -6 -76 -46 -16 -24 -42 -56 -58 -69 -16 -14
-29 -29 -29 -34 0 -17 -75 -165 -104 -205 -37 -52 -66 -99 -66 -107 0 -6 -8
-18 -18 -28 -10 -10 -35 -53 -56 -95 -20 -42 -41 -79 -46 -82 -6 -4 -10 -18
-10 -32 0 -31 -32 -98 -100 -208 -27 -44 -49 -88 -50 -98 0 -10 -9 -35 -20
-57 -11 -22 -20 -46 -20 -55 0 -9 -4 -13 -10 -10 -11 7 -12 151 -1 199 3 17
11 28 16 25 6 -2 9 -7 7 -11 -1 -5 0 -8 3 -8 3 0 10 12 16 27 11 29 -1 50 -21
38 -9 -6 -9 -10 1 -16 11 -7 10 -9 -3 -9 -26 0 -22 20 10 55 36 38 60 114 40
126 -10 6 -8 9 7 9 16 0 17 2 6 9 -11 7 -12 13 -4 23 6 7 13 31 15 54 3 23 8
46 12 52 10 16 -13 25 -29 12 -8 -7 -15 -8 -15 -3 0 5 12 15 27 22 l28 13 -25
14 c-14 7 -21 13 -16 14 5 0 6 3 3 7 -4 3 -16 -2 -27 -12 -23 -21 -39 -13 -20
10 15 18 41 20 57 4 9 -9 10 -7 6 9 -3 15 0 24 11 28 9 3 16 10 16 16 0 5 -4
6 -10 3 -5 -3 -10 -2 -10 3 0 6 7 12 15 16 8 3 15 14 15 24 0 26 11 34 26 21
21 -18 47 -3 41 24 -3 12 1 31 9 41 18 25 1 38 -33 25 -12 -5 -36 -6 -53 -3
-26 6 -30 4 -31 -17 -1 -13 -1 -27 -1 -30 1 -4 -7 -9 -17 -12 -21 -5 -63 23
-43 30 6 3 12 11 12 19 0 8 7 17 15 20 9 4 15 19 15 39 0 20 6 35 15 39 8 3
15 17 15 31 0 15 4 24 9 20 5 -3 12 -1 15 4 4 5 2 12 -4 16 -12 8 -13 45 -1
45 4 0 11 19 14 42 3 23 12 47 20 53 16 11 17 15 17 47 0 21 0 21 15 2 14 -18
14 -18 16 6 0 14 0 40 -1 59 -1 18 2 31 7 28 5 -4 6 16 2 46 -5 38 -3 56 7 68
8 8 14 29 14 46 0 17 9 42 20 56 11 14 20 30 20 36 0 6 7 11 16 11 11 0 15 8
13 28 -4 51 1 72 16 72 8 0 16 7 16 15 4 46 19 67 45 61 17 -5 24 -2 24 8 0
10 6 13 15 10 8 -4 15 -1 15 5 0 6 -7 11 -15 11 -19 0 -19 14 -2 32 7 7 22 26
32 41 10 16 24 26 32 23 21 -8 28 23 8 38 -15 11 -15 13 -1 25 14 12 16 12 10
-3 -3 -9 -1 -16 5 -16 6 0 11 11 11 25 0 25 8 29 43 26 9 -1 17 4 17 13 0 9 4
16 9 16 5 0 12 15 15 34 6 30 16 42 36 45 3 0 11 -3 18 -8z m-88 -45 c0 -3 -4
-8 -10 -11 -5 -3 -10 -1 -10 4 0 6 5 11 10 11 6 0 10 -2 10 -4z m940 -195 c0
-22 -6 -44 -15 -51 -8 -7 -15 -23 -15 -36 0 -13 -5 -24 -11 -24 -8 0 -7 -5 2
-16 17 -21 14 -172 -4 -190 -3 -4 -2 -15 4 -25 6 -11 6 -19 0 -19 -5 0 -5 -15
0 -37 5 -21 9 -67 9 -103 0 -36 7 -90 15 -120 8 -30 15 -72 15 -92 0 -31 3
-36 17 -31 15 6 16 -2 10 -78 -4 -47 -2 -110 4 -144 43 -245 44 -262 19 -302
-12 -19 -12 -29 -2 -65 8 -24 17 -61 21 -83 4 -22 13 -50 19 -62 7 -12 12 -36
12 -53 0 -17 6 -43 14 -58 7 -15 16 -43 20 -64 4 -20 13 -39 21 -42 12 -4 15
-24 15 -84 0 -74 -2 -82 -33 -123 -19 -24 -45 -62 -58 -85 -13 -22 -36 -59
-51 -82 -16 -23 -28 -46 -28 -52 0 -5 -6 -10 -13 -10 -7 0 -34 -23 -60 -51
-31 -33 -64 -57 -96 -69 -27 -11 -64 -33 -82 -50 -18 -16 -39 -30 -46 -30 -7
0 -27 -15 -46 -34 -18 -18 -59 -43 -90 -54 -75 -29 -97 -49 -97 -90 0 -32 -2
-33 -32 -31 -19 1 -51 -7 -73 -19 -64 -34 -76 -39 -154 -63 -61 -20 -84 -33
-123 -73 -51 -52 -59 -82 -30 -106 13 -12 24 -13 49 -5 18 6 35 14 39 18 12
12 24 8 24 -8 0 -8 -4 -15 -10 -15 -5 0 -10 -7 -10 -15 0 -8 5 -15 10 -15 6 0
10 -8 10 -18 0 -28 95 -95 125 -89 14 2 28 0 31 -4 3 -5 19 -9 35 -9 16 0 32
-6 35 -13 4 -10 19 -13 54 -9 28 2 50 1 50 -4 0 -5 14 -10 30 -11 46 -3 66
-30 73 -97 5 -49 11 -63 36 -85 17 -14 54 -47 83 -73 29 -26 65 -50 80 -53 38
-9 92 -63 79 -79 -8 -9 -2 -21 19 -41 16 -16 35 -44 41 -64 6 -20 16 -42 22
-49 16 -20 2 -107 -21 -137 -12 -15 -22 -38 -22 -51 0 -12 -4 -26 -10 -29 -5
-3 -10 -15 -10 -27 0 -11 -13 -43 -28 -72 -16 -28 -32 -68 -36 -88 -3 -20 -13
-41 -21 -48 -8 -7 -15 -18 -15 -25 0 -7 -6 -18 -14 -24 -8 -7 -17 -27 -20 -46
-4 -19 -14 -38 -22 -43 -19 -11 -30 -152 -18 -238 4 -28 1 -51 -10 -72 -9 -17
-16 -40 -16 -50 0 -11 -13 -34 -30 -52 -16 -18 -30 -40 -30 -50 0 -13 -5 -17
-20 -13 -17 5 -19 11 -14 37 5 31 4 32 -25 30 -28 -2 -30 0 -25 22 7 28 -7 31
-30 8 -15 -14 -16 -13 -16 16 0 27 2 30 19 20 19 -9 19 -8 5 20 -9 16 -12 35
-9 41 4 6 8 25 9 42 1 17 8 33 15 35 8 3 7 8 -5 16 -18 14 -10 41 8 30 7 -4 8
-2 4 4 -4 7 -18 9 -32 6 -20 -5 -24 -2 -24 15 0 13 7 21 18 22 14 0 13 2 -4 9
-24 9 -39 61 -21 72 6 4 15 4 19 2 18 -12 6 10 -19 33 -14 14 -22 28 -16 31
20 14 24 45 8 62 -11 12 -13 20 -6 25 16 9 13 25 -3 19 -7 -3 -16 3 -20 12 -8
22 2 33 14 14 14 -23 18 -8 8 29 -9 31 -10 32 -23 15 -11 -16 -18 -17 -44 -8
-24 10 -33 9 -42 -2 -16 -20 -26 -17 -32 7 -4 15 -11 20 -21 16 -9 -4 -16 -3
-16 1 0 5 -6 16 -13 26 -12 16 -14 16 -30 -2 -16 -17 -16 -20 4 -40 15 -17 24
-20 38 -12 20 10 31 4 31 -17 0 -7 -10 -13 -23 -13 -27 0 -47 -17 -47 -40 1
-10 5 -7 13 8 14 24 27 20 27 -10 0 -10 -7 -18 -15 -18 -8 0 -15 -5 -15 -11 0
-8 -4 -8 -14 1 -8 6 -13 17 -10 23 2 7 -5 18 -17 25 -19 12 -20 11 -17 -12 2
-16 -4 -30 -17 -40 -18 -14 -18 -15 -2 -16 23 0 22 -12 -4 -33 -14 -13 -18
-24 -13 -40 4 -12 7 -29 7 -37 1 -41 59 -53 65 -13 2 14 8 20 18 16 21 -8 17
13 -7 28 -19 13 -18 14 14 14 40 0 58 -11 33 -21 -16 -6 -21 -39 -10 -68 3 -9
10 -14 14 -11 5 3 11 1 14 -4 4 -5 2 -12 -4 -16 -15 -9 -12 -25 5 -25 21 0 30
27 15 45 -19 23 4 18 25 -5 10 -11 21 -17 26 -15 4 3 14 -4 23 -16 11 -16 12
-27 5 -41 -5 -10 -9 -26 -7 -35 2 -9 -3 -18 -9 -20 -7 -3 -13 0 -13 7 0 6 -4
8 -10 5 -5 -3 -10 3 -10 14 0 12 -7 21 -15 21 -17 0 -20 -27 -5 -50 6 -9 5
-19 -3 -28 -6 -8 -12 -37 -13 -66 -2 -28 -3 -55 -3 -60 -1 -5 -8 -3 -17 5 -12
10 -14 24 -9 63 4 28 11 55 15 60 15 15 -11 64 -40 76 -24 10 -28 15 -20 30
14 26 13 30 -9 30 -10 0 -22 7 -25 16 -5 12 -9 14 -20 5 -7 -6 -27 -12 -44
-14 -34 -2 -35 -5 -26 -42 5 -21 12 -25 46 -25 l39 0 -21 -30 c-25 -35 -70
-42 -70 -12 0 17 -15 25 -97 48 -7 2 -13 10 -13 19 0 8 -5 15 -10 15 -6 0 -21
24 -34 53 -35 78 -37 88 -26 102 11 13 3 45 -11 45 -5 0 -9 9 -9 19 0 11 -5
23 -11 27 -7 4 -9 20 -6 40 4 21 1 34 -6 37 -8 2 -11 23 -10 55 1 39 -3 52
-13 52 -8 0 -14 -4 -14 -10 0 -5 -4 -10 -10 -10 -5 0 -10 7 -10 15 0 8 -3 15
-8 15 -15 0 -31 39 -38 92 -7 49 -6 52 9 39 15 -12 17 -11 17 3 0 10 5 14 10
11 6 -3 7 -17 4 -30 -6 -25 29 -75 53 -75 7 0 13 -4 13 -10 0 -5 5 -10 10 -10
17 0 11 15 -18 46 -17 17 -31 45 -35 68 -8 49 -10 51 -40 31 -24 -15 -26 -15
-41 7 -9 12 -16 27 -16 33 -1 5 -9 28 -20 50 -11 22 -19 48 -20 57 0 9 -4 19
-9 22 -4 3 -11 27 -14 53 -3 26 -13 62 -21 78 -9 17 -16 37 -16 45 0 9 -7 26
-16 38 -8 12 -13 26 -10 31 4 5 2 11 -3 13 -13 4 -35 128 -37 213 -2 79 -15
129 -41 157 -16 18 -18 39 -16 174 1 93 -3 154 -9 154 -5 0 -6 5 -2 11 4 7 7
26 6 43 0 17 4 33 10 37 6 4 5 14 -3 28 -11 17 -12 25 -1 42 10 16 10 24 1 35
-9 11 -8 18 2 30 8 9 12 27 11 39 -2 12 4 28 12 35 17 13 22 40 8 40 -4 0 -6
18 -4 40 3 28 10 41 24 45 15 5 16 10 8 20 -8 10 -7 16 7 24 16 9 16 12 3 21
-10 6 -11 10 -2 10 6 0 12 7 12 16 0 8 -4 12 -10 9 -5 -3 -10 -1 -10 5 0 7 14
17 30 23 17 6 30 18 30 25 0 23 27 -4 34 -33 4 -14 11 -25 16 -25 16 0 11 40
-5 46 -26 10 -16 26 14 22 28 -2 61 15 61 33 0 14 -34 11 -67 -6 -50 -25 -61
-13 -51 53 5 31 13 59 18 62 4 3 11 23 16 44 4 22 18 50 30 63 13 13 24 29 24
36 0 7 13 39 30 72 16 33 30 65 30 70 0 6 12 28 26 49 14 21 41 69 60 107 21
42 40 69 50 69 11 0 14 5 10 16 -7 19 20 74 38 74 7 0 18 11 24 25 6 14 16 25
22 25 5 0 10 4 10 10 0 5 -7 7 -15 4 -10 -4 -15 0 -15 10 0 9 7 19 15 22 8 4
15 11 15 18 0 6 9 12 20 13 11 1 18 -2 15 -7 -3 -5 -1 -19 5 -30 9 -17 8 -20
-10 -20 -28 0 -25 -18 4 -26 14 -3 27 -12 30 -20 7 -17 -12 -53 -37 -72 -14
-11 -17 -24 -14 -65 4 -50 5 -52 37 -55 34 -4 56 14 41 33 -15 18 7 54 44 69
40 17 42 23 18 43 -17 13 -16 14 6 9 34 -7 60 9 54 34 -4 14 0 20 11 20 15 0
20 15 17 52 -2 12 12 23 38 35 42 18 53 33 26 33 -8 0 -15 5 -15 11 0 6 8 8
18 5 15 -5 17 -1 14 32 -4 36 -6 38 -33 34 -20 -3 -29 -10 -29 -23 0 -15 -7
-19 -37 -19 l-38 0 28 15 c15 8 35 21 44 30 14 14 14 18 2 26 -8 5 -18 7 -24
5 -5 -2 -17 -7 -26 -11 -13 -5 -15 -1 -12 20 4 16 11 24 22 23 10 -2 16 4 16
17 0 15 6 19 23 17 12 -2 22 2 22 7 0 6 11 11 25 11 14 0 25 4 25 9 0 5 18 11
40 13 22 2 40 0 40 -4 0 -5 -3 -8 -7 -8 -5 0 -17 -13 -27 -27 -17 -23 -18 -26
-2 -20 10 4 19 1 22 -8 9 -24 19 -18 34 20 8 21 21 35 31 35 15 0 16 4 6 35
-9 30 -13 34 -35 28 -24 -6 -24 -4 -18 30 8 44 -8 57 -26 20 -7 -15 -24 -33
-38 -40 -13 -7 -29 -18 -35 -25 -5 -8 -15 -13 -22 -13 -15 0 -30 15 -14 15 16
0 44 68 38 92 -4 13 3 23 24 33 16 9 29 20 29 26 0 6 6 9 14 6 8 -3 16 2 19
14 5 17 3 18 -9 8 -12 -10 -13 -9 -7 7 6 17 5 17 -10 6 -33 -28 -37 -5 -5 30
38 42 29 32 130 158 42 52 91 110 111 128 33 32 35 32 40 12 4 -15 1 -20 -10
-18 -9 2 -18 -3 -21 -10 -2 -9 3 -12 14 -10 25 4 54 29 47 40 -3 5 3 16 13 23
15 12 16 16 6 23 -10 7 10 33 77 101 50 51 91 96 91 101 0 5 9 12 20 15 11 3
20 13 20 21 0 8 7 14 15 14 11 0 15 -11 15 -39z m-740 -225 c0 -6 -7 -1 -15
10 -8 10 -15 23 -15 28 0 6 7 1 15 -10 8 -10 15 -23 15 -28z m-670 -110 c0 -3
-4 -8 -10 -11 -5 -3 -10 -1 -10 4 0 6 5 11 10 11 6 0 10 -2 10 -4z m-5 -48 c6
-4 0 -8 -12 -8 -16 0 -21 4 -16 15 3 9 8 12 12 8 3 -4 11 -11 16 -15z m-5 -28
c0 -5 -4 -10 -10 -10 -5 0 -10 5 -10 10 0 6 5 10 10 10 6 0 10 -4 10 -10z
m-40 -105 c0 -8 -4 -15 -10 -15 -5 0 -10 7 -10 15 0 8 5 15 10 15 6 0 10 -7
10 -15z m756 -60 c-3 -9 -10 -13 -16 -10 -6 4 -8 11 -5 16 4 5 1 9 -5 9 -7 0
-7 7 1 22 l12 23 10 -22 c5 -12 7 -29 3 -38z m-810 -162 c18 -24 18 -63 0 -63
-8 0 -16 -7 -20 -15 -3 -8 -1 -15 4 -15 6 0 10 -4 10 -10 0 -5 -7 -7 -16 -3
-8 3 -14 15 -13 27 0 11 0 23 -1 26 -8 22 -7 46 2 57 14 17 18 16 34 -4z m924
-59 c0 -8 -5 -12 -10 -9 -6 4 -8 11 -5 16 9 14 15 11 15 -7z m-880 -9 c0 -8
-4 -15 -10 -15 -5 0 -10 7 -10 15 0 8 5 15 10 15 6 0 10 -7 10 -15z m630 -36
c0 -5 -7 -6 -15 -3 -8 4 -15 13 -15 21 0 13 3 13 15 3 8 -7 15 -16 15 -21z
m80 -25 c0 -7 -27 -34 -34 -34 -4 0 -1 9 6 20 12 19 28 27 28 14z m-810 -29
c7 -14 20 -26 29 -26 14 -1 14 -2 -1 -6 -9 -2 -19 -15 -22 -29 -4 -13 -11 -24
-17 -24 -6 0 -9 6 -6 13 17 46 18 57 3 63 -9 3 -16 12 -16 20 0 22 15 16 30
-11z m700 8 c0 -5 -5 -15 -10 -23 -8 -12 -10 -11 -10 8 0 12 5 22 10 22 6 0
10 -3 10 -7z m35 -44 c-10 -15 -25 -10 -19 6 4 8 10 12 15 9 5 -3 7 -10 4 -15z
m55 -43 c0 -14 -29 -31 -37 -22 -6 6 19 35 30 36 4 0 7 -6 7 -14z m-550 -36
c0 -5 -11 -12 -24 -16 -15 -3 -27 -15 -30 -30 -7 -25 -30 -32 -42 -12 -5 8 -2
9 9 5 16 -6 22 4 18 27 -4 22 11 36 39 36 16 0 30 -4 30 -10z m560 -9 c0 -6
-4 -13 -10 -16 -5 -3 -10 1 -10 9 0 9 5 16 10 16 6 0 10 -4 10 -9z m-700 -51
c-18 -34 -21 -24 -11 45 1 6 6 2 12 -7 7 -12 6 -24 -1 -38z m671 15 c11 4 19
2 19 -4 0 -6 -4 -11 -10 -11 -5 0 -10 -4 -10 -10 0 -5 6 -10 14 -10 8 0 18 -5
22 -12 4 -6 3 -8 -4 -4 -6 3 -13 2 -17 -4 -3 -5 3 -10 14 -10 17 0 21 6 21 38
l0 37 20 -25 c24 -30 25 -40 5 -40 -9 0 -15 -9 -15 -24 0 -39 -45 -22 -74 29
-22 36 -31 43 -68 49 -39 7 -41 8 -25 21 16 12 24 11 54 -6 20 -11 43 -17 54
-14z m-39 -107 c-11 -11 -32 -3 -32 12 0 12 34 18 39 7 2 -5 -1 -13 -7 -19z
m-62 -118 c0 -5 -4 -10 -10 -10 -5 0 -10 5 -10 10 0 6 5 10 10 10 6 0 10 -4
10 -10z m20 -30 c0 -5 -4 -10 -10 -10 -5 0 -10 5 -10 10 0 6 5 10 10 10 6 0
10 -4 10 -10z m-558 -25 c0 -5 -5 -11 -11 -13 -6 -2 -11 4 -11 13 0 9 5 15 11
13 6 -2 11 -8 11 -13z m-42 -180 c0 -5 -5 -3 -10 5 -5 8 -10 20 -10 25 0 6 5
3 10 -5 5 -8 10 -19 10 -25z m120 -300 c0 -8 -4 -15 -9 -15 -5 0 -11 7 -15 15
-3 9 0 15 9 15 8 0 15 -7 15 -15z m-242 -642 c-18 -43 -32 -53 -23 -18 5 24
20 44 32 45 2 0 -3 -12 -9 -27z m-38 -59 c0 -8 -5 -12 -10 -9 -6 4 -8 11 -5
16 9 14 15 11 15 -7z m890 -254 c0 -5 -2 -10 -4 -10 -3 0 -8 5 -11 10 -3 6 -1
10 4 10 6 0 11 -4 11 -10z m-1083 -158 c15 -16 34 -27 41 -24 6 2 13 -5 13
-15 4 -65 13 -95 46 -148 37 -60 57 -85 67 -85 25 0 99 -120 90 -147 -21 -64
-30 -75 -73 -98 -62 -31 -134 -25 -172 15 -14 15 -30 29 -35 31 -5 2 -22 21
-38 41 -15 20 -41 43 -57 50 -29 13 -42 42 -14 32 23 -9 18 14 -10 42 -30 29
-34 60 -7 49 49 -20 52 -19 52 21 0 22 -7 53 -16 69 -30 56 -35 87 -17 100 15
11 15 14 0 36 -10 13 -17 26 -17 29 0 3 22 5 49 4 35 -2 51 2 55 12 7 19 10
18 43 -14z m1217 -1047 c3 -9 0 -15 -9 -15 -8 0 -15 7 -15 15 0 8 4 15 9 15 5
0 11 -7 15 -15z m616 -149 c5 -13 14 -27 19 -31 6 -3 11 -15 11 -25 0 -10 3
-20 8 -22 9 -4 62 -106 62 -119 0 -5 -7 -9 -16 -9 -8 0 -12 -5 -9 -10 4 -6 10
-8 15 -5 13 8 57 -19 96 -59 52 -54 39 -62 -99 -58 -80 2 -116 7 -127 17 -9 8
-22 15 -28 15 -7 0 -17 9 -24 20 -7 11 -18 20 -25 20 -8 0 -13 13 -13 30 0 21
5 30 16 30 10 0 14 6 11 14 -3 8 -1 17 6 20 7 2 3 5 -7 5 -16 1 -17 4 -8 13 7
7 12 20 12 30 0 9 6 21 13 25 16 10 57 87 57 107 0 24 19 19 30 -8z m450 -186
c13 -8 13 -10 -2 -10 -11 0 -15 -6 -11 -20 5 -17 1 -20 -28 -19 -19 0 -43 4
-54 9 -18 7 -18 8 7 15 15 4 32 13 39 21 13 16 28 18 49 4z m-976 -36 c3 -8 2
-12 -4 -9 -6 3 -10 10 -10 16 0 14 7 11 14 -7z m-174 -24 c0 -5 -4 -10 -10
-10 -5 0 -10 5 -10 10 0 6 5 10 10 10 6 0 10 -4 10 -10z m-130 -20 c0 -5 -5
-10 -11 -10 -5 0 -7 5 -4 10 3 6 8 10 11 10 2 0 4 -4 4 -10z m217 -18 c8 -5 9
-13 3 -22 -7 -10 -10 -11 -10 -2 0 6 -7 12 -16 12 -8 0 -12 5 -9 10 7 12 16
12 32 2z m-77 -109 c0 -10 -4 -14 -8 -8 -4 6 -11 13 -16 18 -5 4 -2 7 7 7 10
0 17 -8 17 -17z m618 -33 c29 -18 65 -34 80 -35 15 -2 50 -6 77 -9 130 -17
139 -22 80 -50 -19 -9 -35 -20 -35 -24 0 -4 -14 -21 -30 -39 -17 -18 -30 -37
-30 -42 0 -6 -4 -11 -9 -11 -13 0 -23 -54 -28 -155 -4 -82 -2 -93 16 -109 24
-22 27 -36 7 -36 -7 0 -19 -6 -26 -14 -16 -20 -102 -13 -163 14 -91 40 -132
103 -120 185 3 25 10 48 14 51 5 3 9 23 9 45 0 22 4 48 10 58 9 19 43 163 44
192 1 25 45 16 104 -21z m-518 9 c0 -14 -17 -10 -23 5 -4 10 -1 13 9 9 7 -3
14 -9 14 -14z m-60 -44 c0 -8 -4 -15 -10 -15 -5 0 -10 7 -10 15 0 8 5 15 10
15 6 0 10 -7 10 -15z m240 5 c0 -5 -4 -10 -10 -10 -5 0 -10 5 -10 10 0 6 5 10
10 10 6 0 10 -4 10 -10z m-170 -60 c0 -5 -4 -10 -10 -10 -5 0 -10 5 -10 10 0
6 5 10 10 10 6 0 10 -4 10 -10z m149 -4 c7 -8 8 -16 4 -19 -15 -9 -63 5 -63
19 0 18 44 18 59 0z m58 -8 c-3 -8 -6 -5 -6 6 -1 11 2 17 5 13 3 -3 4 -12 1
-19z m-177 -42 c0 -13 7 -29 15 -36 8 -7 15 -21 15 -32 0 -12 5 -18 13 -15 6
2 11 10 9 17 -1 6 3 10 10 8 8 -3 13 -24 13 -61 l0 -56 -32 3 c-42 4 -63 22
-63 53 0 13 -7 31 -15 39 -20 20 -21 61 -2 45 8 -6 17 -8 20 -4 11 10 8 43 -4
43 -5 0 -7 5 -4 10 11 18 25 10 25 -14z m163 -36 c-3 -11 -9 -20 -14 -20 -13
0 -11 -34 2 -47 8 -8 6 -19 -5 -39 l-17 -29 7 33 c4 25 2 37 -11 46 -16 11
-16 14 -1 28 9 9 16 23 16 31 0 7 3 17 6 20 12 12 22 -3 17 -23z m-3 -209 c0
-11 -5 -21 -11 -23 -5 -2 -7 -11 -4 -21 8 -18 25 -23 25 -7 0 5 9 2 20 -7 28
-24 25 -35 -7 -31 -22 2 -27 -1 -25 -14 4 -24 -17 -22 -45 4 -24 22 -30 52
-13 63 5 3 7 12 3 20 -3 10 1 15 12 15 9 0 13 5 10 10 -3 6 3 10 14 10 14 0
21 -6 21 -19z m629 -12 c47 -16 43 -52 -9 -79 -21 -11 -48 -20 -58 -20 -18 0
-19 3 -8 33 9 26 37 77 42 77 1 0 15 -5 33 -11z m-599 -129 c-8 -5 -19 -10
-25 -10 -5 0 -3 5 5 10 8 5 20 10 25 10 6 0 3 -5 -5 -10z m40 -41 c0 -4 -7 -6
-15 -3 -8 4 -15 10 -15 15 0 4 7 6 15 3 8 -4 15 -10 15 -15z m26 -24 c-3 -9 0
-15 8 -15 8 0 25 -12 38 -27 14 -17 42 -33 71 -41 27 -7 63 -23 80 -36 43 -32
79 -38 223 -38 130 0 138 -3 108 -43 -11 -15 -27 -20 -59 -20 -25 0 -45 -4
-45 -9 0 -4 -8 -5 -17 0 -10 4 -58 11 -108 15 -74 5 -101 12 -150 39 -33 18
-67 40 -75 49 -8 9 -28 22 -43 29 -36 16 -45 41 -21 60 15 11 15 13 2 9 -17
-6 -33 17 -22 34 9 15 17 10 10 -6z m723 -81 c-18 -19 -41 -34 -51 -34 -10 0
-26 -8 -37 -19 -22 -22 -67 -35 -76 -22 -7 12 34 41 58 41 10 0 44 21 75 46
63 51 84 43 31 -12z"/>
<path d="M8703 9371 c-18 -9 -33 -21 -33 -28 0 -6 -5 -15 -12 -19 -7 -4 -8 -3
-4 4 10 17 -19 15 -33 -2 -6 -7 -9 -20 -6 -28 4 -9 -1 -18 -9 -21 -24 -9 -19
-26 9 -33 23 -6 36 -24 17 -24 -5 0 -14 -16 -22 -35 -14 -36 -40 -55 -40 -30
0 10 -10 15 -32 15 -17 0 -29 -3 -25 -6 3 -3 -3 -14 -14 -25 -24 -24 -24 -38
-1 -45 9 -3 25 -10 35 -15 11 -6 22 -7 25 -3 4 4 1 9 -5 11 -18 6 -16 30 1 36
9 4 17 -1 19 -11 4 -16 5 -15 6 1 0 9 7 17 15 17 8 0 23 18 35 40 11 22 35 54
53 70 29 26 31 32 18 43 -8 6 -14 22 -12 35 3 18 8 22 25 16 12 -3 19 -3 15 1
-4 5 0 14 10 21 29 22 2 34 -35 15z m-15 -109 c2 -7 -3 -12 -12 -12 -9 0 -16
7 -16 16 0 17 22 14 28 -4z"/>
<path d="M8505 9340 c-3 -5 -1 -10 4 -10 6 0 11 5 11 10 0 6 -2 10 -4 10 -3 0
-8 -4 -11 -10z"/>
<path d="M8557 9233 c-12 -12 -7 -22 8 -17 8 4 15 10 15 15 0 11 -14 12 -23 2z"/>
<path d="M8371 9054 c0 -11 3 -14 6 -6 3 7 2 16 -1 19 -3 4 -6 -2 -5 -13z"/>
<path d="M8395 8980 c0 -22 2 -40 6 -40 11 0 26 24 33 53 6 23 3 27 -17 27
-20 0 -22 -5 -22 -40z"/>
<path d="M8330 8794 c0 -8 5 -12 10 -9 6 3 10 10 10 16 0 5 -4 9 -10 9 -5 0
-10 -7 -10 -16z"/>
<path d="M8340 8600 c0 -5 -6 -10 -14 -10 -7 0 -19 -7 -27 -16 -10 -13 -10
-17 2 -25 8 -5 21 -8 29 -8 10 0 11 2 3 6 -7 2 -13 9 -13 14 0 6 6 7 13 3 6
-4 9 -3 4 1 -4 5 0 17 10 27 9 11 11 18 5 18 -7 0 -12 -4 -12 -10z"/>
<path d="M8275 8311 c-3 -5 -1 -12 5 -16 5 -3 10 1 10 9 0 18 -6 21 -15 7z"/>
<path d="M9433 9222 c0 -12 5 -22 9 -22 11 0 10 12 -2 30 -7 12 -9 10 -7 -8z"/>
<path d="M9490 9200 c0 -5 -14 -17 -31 -26 -22 -11 -30 -21 -26 -34 3 -11 2
-18 -2 -17 -12 4 -102 -101 -91 -108 7 -4 7 -12 0 -26 -6 -10 -10 -27 -8 -37
2 -12 -5 -18 -24 -20 -28 -3 -36 -16 -18 -27 18 -11 11 -23 -10 -18 -23 6 -71
-34 -63 -53 2 -7 -4 -15 -14 -18 -24 -8 -47 -56 -33 -70 5 -5 10 -19 10 -29 0
-15 5 -18 25 -15 16 4 29 0 34 -10 5 -8 14 -12 20 -8 9 6 9 11 0 22 -9 11 -8
18 3 32 9 9 18 33 22 53 4 25 14 39 31 47 13 6 27 23 31 37 3 13 10 22 15 19
8 -5 13 4 24 42 2 8 17 9 44 4 22 -4 42 -5 45 -3 2 2 -7 15 -20 28 -29 29 -31
49 -5 40 10 -3 26 -2 36 1 16 7 16 8 -6 17 -13 5 -19 11 -12 14 8 3 8 14 1 41
-7 26 -7 37 1 40 6 2 11 15 11 28 0 14 4 23 9 19 6 -3 15 3 20 14 14 26 14 31
-4 31 -8 0 -15 -4 -15 -10z m-56 -166 c4 -11 1 -14 -11 -12 -9 2 -18 9 -21 16
-6 18 25 15 32 -4z m-27 -60 c-3 -3 -12 -4 -19 -1 -8 3 -5 6 6 6 11 1 17 -2
13 -5z m-136 -153 c-8 -5 -11 -16 -7 -26 5 -15 4 -16 -9 -5 -12 10 -13 16 -4
26 6 8 17 14 23 14 6 0 5 -4 -3 -9z"/>
<path d="M9395 9190 c-3 -5 -1 -10 4 -10 6 0 11 5 11 10 0 6 -2 10 -4 10 -3 0
-8 -4 -11 -10z"/>
<path d="M9314 9154 c3 -9 6 -21 6 -27 0 -8 3 -8 10 -1 12 12 3 44 -12 44 -6
0 -7 -7 -4 -16z"/>
<path d="M9290 9130 c0 -5 5 -10 11 -10 5 0 7 5 4 10 -3 6 -8 10 -11 10 -2 0
-4 -4 -4 -10z"/>
<path d="M9560 9110 c0 -5 5 -10 10 -10 6 0 10 5 10 10 0 6 -4 10 -10 10 -5 0
-10 -4 -10 -10z"/>
<path d="M9237 9063 c-14 -28 -13 -53 3 -53 4 0 10 18 12 40 2 22 2 40 1 40
-1 0 -9 -12 -16 -27z"/>
<path d="M9137 8884 c-8 -8 1 -24 14 -24 5 0 9 7 9 15 0 15 -12 20 -23 9z"/>
<path d="M9033 8609 c-7 -7 -9 -17 -4 -23 5 -6 11 -20 13 -31 l4 -20 5 20 c3
11 3 30 0 43 -5 18 -9 20 -18 11z"/>
<path d="M8965 8600 c-3 -5 -2 -10 4 -10 5 0 13 5 16 10 3 6 2 10 -4 10 -5 0
-13 -4 -16 -10z"/>
<path d="M8720 8309 c0 -5 5 -7 10 -4 6 3 10 8 10 11 0 2 -4 4 -10 4 -5 0 -10
-5 -10 -11z"/>
<path d="M8981 8292 c-27 -29 -35 -52 -20 -52 6 0 5 -8 -1 -20 -6 -11 -18 -20
-27 -20 -8 0 -24 -10 -35 -22 -16 -19 -17 -23 -3 -30 8 -5 15 -18 15 -30 0
-21 -1 -21 -20 -3 -16 14 -23 16 -32 7 -9 -9 -8 -12 4 -12 11 0 18 -10 20 -27
2 -14 8 -28 13 -30 16 -5 47 60 41 89 -5 32 2 42 20 27 15 -12 17 -9 29 46 8
38 23 55 46 55 14 0 19 7 19 25 0 35 -37 33 -69 -3z"/>
<path d="M9255 8271 c-8 -14 13 -53 26 -46 13 9 11 31 -5 44 -10 8 -16 9 -21
2z"/>
<path d="M9070 8240 c0 -5 5 -10 11 -10 5 0 7 5 4 10 -3 6 -8 10 -11 10 -2 0
-4 -4 -4 -10z"/>
<path d="M9190 8240 c0 -5 7 -7 15 -4 8 4 15 8 15 10 0 2 -7 4 -15 4 -8 0 -15
-4 -15 -10z"/>
<path d="M9235 8184 c4 -16 -2 -28 -22 -44 -17 -13 -21 -19 -10 -16 10 3 24 6
32 6 19 0 25 37 8 57 -13 17 -14 17 -8 -3z"/>
<path d="M8595 8109 c-4 -6 -5 -13 -2 -16 7 -7 27 6 27 18 0 12 -17 12 -25 -2z"/>
<path d="M8690 8090 c0 -5 5 -10 11 -10 5 0 7 5 4 10 -3 6 -8 10 -11 10 -2 0
-4 -4 -4 -10z"/>
<path d="M9165 8090 c-3 -5 -1 -10 4 -10 6 0 11 5 11 10 0 6 -2 10 -4 10 -3 0
-8 -4 -11 -10z"/>
<path d="M8737 8083 c-9 -2 -15 -8 -12 -13 8 -13 -11 -21 -55 -22 -22 0 -40
-4 -40 -9 0 -5 19 -9 42 -9 40 0 41 0 23 -20 -17 -19 -41 -18 -30 1 4 5 -1 9
-9 9 -8 0 -18 -4 -21 -10 -3 -5 -1 -10 4 -10 6 0 11 -9 11 -20 0 -17 7 -20 44
-20 39 0 44 2 39 20 -3 11 -10 17 -17 14 -6 -3 -1 3 12 13 13 10 25 33 27 51
2 18 3 31 2 31 -1 -1 -10 -3 -20 -6z"/>
<path d="M9026 8068 c3 -5 10 -6 15 -3 13 9 11 12 -6 12 -8 0 -12 -4 -9 -9z"/>
<path d="M9090 8065 c0 -8 5 -15 10 -15 6 0 10 7 10 15 0 8 -4 15 -10 15 -5 0
-10 -7 -10 -15z"/>
<path d="M8837 8028 c-7 -24 -1 -38 14 -38 6 0 7 5 4 10 -3 6 2 10 12 11 10 0
13 3 6 6 -7 2 -13 11 -13 19 0 22 -17 16 -23 -8z"/>
<path d="M8919 8016 c-1 -3 -2 -10 -3 -15 0 -5 -4 -13 -8 -17 -5 -4 -8 -16 -8
-26 0 -20 -15 -24 -25 -7 -5 6 -12 4 -21 -8 -14 -17 -15 -17 -9 5 5 16 2 22
-10 22 -11 0 -15 -5 -11 -16 8 -22 -22 -64 -41 -57 -13 5 -15 2 -10 -18 4 -13
7 -27 7 -31 0 -5 9 -8 20 -8 15 0 20 7 20 27 0 29 16 21 22 -11 4 -23 28 -34
28 -13 0 9 -4 17 -10 19 -6 2 -6 15 -2 33 7 26 12 30 40 27 28 -3 32 -1 30 20
-2 15 2 22 10 20 17 -3 12 50 -5 56 -7 2 -14 1 -14 -2z"/>
<path d="M9111 8011 c-18 -11 -5 -31 20 -31 10 0 19 -4 19 -9 0 -14 -21 -25
-29 -15 -9 13 -31 16 -31 4 0 -5 5 -10 10 -10 6 0 10 -8 10 -17 0 -13 -3 -14
-12 -5 -7 7 -20 12 -30 12 -14 0 -18 -9 -19 -35 -1 -19 -2 -41 -3 -47 -1 -7
11 -14 26 -16 28 -3 45 -27 27 -38 -6 -3 -21 4 -34 16 -26 25 -46 20 -38 -9 3
-13 -2 -21 -15 -25 -26 -9 -18 -56 9 -56 11 0 23 -8 27 -18 6 -16 12 -17 40
-10 27 7 32 13 27 28 -4 12 -2 20 4 20 6 0 10 6 9 13 -2 7 7 11 22 10 24 -1
27 4 37 58 7 36 8 72 3 89 -5 18 -5 32 1 36 5 3 8 18 6 32 -3 23 -9 27 -38 30
-19 1 -40 -2 -48 -7z m-14 -255 c-5 -16 -24 -18 -30 -2 -4 10 0 14 14 13 10
-1 18 -6 16 -11z m-22 -26 c3 -5 -1 -10 -9 -10 -9 0 -16 5 -16 10 0 6 4 10 9
10 6 0 13 -4 16 -10z"/>
<path d="M8781 8002 l-23 -4 22 -15 c16 -11 25 -12 33 -4 15 15 -2 28 -32 23z"/>
<path d="M8641 7918 c0 -13 3 -17 6 -10 2 6 11 12 18 12 15 0 25 -22 25 -55 0
-27 3 -29 43 -39 20 -5 27 -3 27 9 0 8 -7 16 -15 16 -8 1 -19 3 -25 4 -5 1
-13 3 -16 4 -4 0 1 13 11 27 9 14 13 29 9 32 -4 4 -9 1 -11 -5 -7 -19 -20 -16
-26 7 -8 29 -47 27 -46 -2z"/>
<path d="M8935 7880 c-3 -5 -1 -10 4 -10 6 0 11 5 11 10 0 6 -2 10 -4 10 -3 0
-8 -4 -11 -10z"/>
<path d="M8600 7831 c0 -5 5 -13 10 -16 6 -3 10 -2 10 4 0 5 -4 13 -10 16 -5
3 -10 2 -10 -4z"/>
<path d="M8980 7830 c0 -5 7 -10 15 -10 8 0 15 5 15 10 0 6 -7 10 -15 10 -8 0
-15 -4 -15 -10z"/>
<path d="M8787 7824 c-11 -11 5 -42 20 -37 12 5 14 1 9 -15 -9 -27 3 -33 33
-18 l23 13 -40 31 c-21 17 -42 29 -45 26z"/>
<path d="M8654 7805 c-8 -19 2 -45 16 -45 5 0 10 8 10 18 0 14 2 15 10 2 6
-10 4 -20 -6 -31 -16 -18 -9 -29 18 -29 14 0 18 8 18 39 0 22 -6 43 -12 48
-23 14 -49 13 -54 -2z"/>
<path d="M8927 7813 c-10 -16 9 -32 31 -26 21 5 31 23 13 23 -5 0 -16 3 -24 6
-8 3 -17 1 -20 -3z"/>
<path d="M8520 7800 c0 -5 5 -10 11 -10 5 0 7 5 4 10 -3 6 -8 10 -11 10 -2 0
-4 -4 -4 -10z"/>
<path d="M8587 7794 c-8 -8 3 -34 14 -34 5 0 9 9 9 20 0 19 -11 26 -23 14z"/>
<path d="M8444 7764 c3 -9 6 -18 6 -20 0 -2 6 -4 14 -4 9 0 14 9 13 20 -1 12
-8 20 -20 20 -13 0 -17 -5 -13 -16z"/>
<path d="M8533 7730 c-10 -11 -24 -20 -33 -21 -13 0 -13 -1 0 -6 8 -4 21 -12
28 -20 16 -15 42 -17 42 -3 0 5 6 7 14 4 15 -6 69 39 59 49 -3 4 -16 4 -28 1
-13 -3 -26 -1 -29 5 -11 17 -35 13 -53 -9z m28 -37 c-9 -16 -10 -14 -11 12 0
21 3 26 11 18 8 -8 8 -16 0 -30z"/>
<path d="M8760 7731 c0 -5 -2 -16 -5 -23 -4 -10 2 -14 21 -13 15 0 29 6 32 13
2 6 -3 12 -12 12 -9 0 -16 5 -16 10 0 6 -4 10 -10 10 -5 0 -10 -4 -10 -9z"/>
<path d="M8838 7705 c-3 -14 -1 -28 3 -31 10 -6 29 37 22 49 -9 15 -21 6 -25
-18z"/>
<path d="M8415 7710 c-3 -5 -2 -10 4 -10 5 0 13 5 16 10 3 6 2 10 -4 10 -5 0
-13 -4 -16 -10z"/>
<path d="M8956 7692 c-3 -6 -2 -13 4 -17 5 -3 10 -3 10 1 0 3 11 -1 24 -9 21
-14 25 -14 30 -2 4 11 -2 15 -17 15 -13 0 -28 5 -34 11 -7 7 -13 7 -17 1z"/>
<path d="M8403 7661 c-5 -9 -6 -27 -2 -41 4 -14 7 -19 8 -12 1 14 41 17 41 2
0 -5 7 -10 15 -10 22 0 19 10 -18 45 -30 29 -35 31 -44 16z"/>
<path d="M9012 7613 c9 -10 14 -23 11 -29 -2 -6 3 -14 11 -17 24 -10 27 31 3
48 -29 20 -44 19 -25 -2z"/>
<path d="M8615 7610 c-3 -5 1 -10 9 -10 8 0 18 5 21 10 3 6 -1 10 -9 10 -8 0
-18 -4 -21 -10z"/>
<path d="M9077 7532 c-24 -26 -21 -32 8 -19 14 7 25 18 25 25 0 17 -14 15 -33
-6z"/>
<path d="M8971 7524 c-12 -14 -11 -16 4 -12 10 1 20 9 23 16 5 17 -10 15 -27
-4z"/>
<path d="M8833 7513 c-7 -3 -13 -9 -13 -15 0 -6 -8 -17 -17 -24 -17 -13 -17
-13 0 -14 10 0 21 8 24 18 4 9 11 20 17 24 13 9 5 17 -11 11z"/>
<path d="M8660 7480 c0 -5 14 -10 32 -10 36 0 35 4 -4 14 -17 4 -28 2 -28 -4z"/>
<path d="M8935 7479 c-9 -13 13 -29 31 -22 6 2 15 -1 19 -7 5 -8 11 -7 23 2
13 11 15 11 10 -4 -4 -9 -1 -19 7 -21 12 -5 25 20 25 51 0 10 -5 10 -21 2 -15
-8 -24 -8 -34 0 -9 8 -15 8 -20 0 -5 -8 -10 -8 -20 0 -10 8 -15 8 -20 -1z"/>
<path d="M8316 7452 c-9 -14 9 -29 26 -23 17 6 16 7 -2 18 -10 7 -21 9 -24 5z"/>
<path d="M8507 7430 c3 -11 9 -20 15 -20 5 0 4 9 -2 20 -6 11 -12 20 -14 20
-2 0 -2 -9 1 -20z"/>
<path d="M8677 7418 c4 -29 2 -31 -9 -17 -12 15 -15 14 -25 -8 -7 -14 -10 -23
-7 -20 4 3 14 -1 23 -10 15 -15 16 -15 19 0 2 10 9 14 19 10 12 -5 15 -2 10
10 -3 9 -2 19 3 22 12 7 -10 45 -26 45 -6 0 -9 -13 -7 -32z"/>
<path d="M8884 7436 c-7 -17 13 -49 25 -41 12 7 6 48 -7 53 -7 2 -15 -4 -18
-12z"/>
<path d="M8836 7391 c-4 -7 -5 -15 -2 -18 9 -9 19 4 14 18 -4 11 -6 11 -12 0z"/>
<path d="M8543 7284 c-6 -13 -8 -24 -4 -24 10 0 31 39 23 44 -4 2 -12 -7 -19
-20z"/>
<path d="M8480 7259 c0 -5 5 -7 10 -4 6 3 10 8 10 11 0 2 -4 4 -10 4 -5 0 -10
-5 -10 -11z"/>
<path d="M8550 6851 c0 -12 15 -28 33 -34 12 -5 17 -1 17 12 0 12 -9 20 -25
23 -14 3 -25 2 -25 -1z"/>
<path d="M8522 6828 c6 -18 28 -21 28 -4 0 9 -7 16 -16 16 -9 0 -14 -5 -12
-12z"/>
<path d="M8530 6745 c0 -8 2 -15 4 -15 2 0 6 7 10 15 3 8 1 15 -4 15 -6 0 -10
-7 -10 -15z"/>
<path d="M8450 6330 c0 -5 7 -10 15 -10 8 0 15 5 15 10 0 6 -7 10 -15 10 -8 0
-15 -4 -15 -10z"/>
<path d="M8600 6106 c0 -25 12 -46 25 -46 19 0 27 17 20 40 -7 23 -45 28 -45
6z"/>
<path d="M8521 6023 c-7 -8 -14 -28 -15 -44 -2 -24 2 -29 21 -29 20 0 23 5 23
39 0 45 -9 56 -29 34z"/>
<path d="M8782 5940 c0 -14 2 -19 5 -12 2 6 2 18 0 25 -3 6 -5 1 -5 -13z"/>
<path d="M8660 5776 c0 -2 9 -6 20 -9 11 -3 20 -1 20 4 0 5 -9 9 -20 9 -11 0
-20 -2 -20 -4z"/>
<path d="M8890 5710 c0 -16 5 -30 11 -30 5 0 7 -5 3 -11 -4 -8 -9 -7 -15 2 -9
16 -14 12 -23 -17 -5 -18 -2 -21 24 -22 25 -1 30 3 30 22 0 12 5 27 12 34 9 9
7 16 -7 32 -25 28 -35 25 -35 -10z"/>
<path d="M8650 5723 c-9 -2 -21 -12 -28 -23 -10 -16 -10 -20 2 -20 7 0 21 -10
29 -22 l16 -23 0 23 c1 12 -4 22 -11 22 -6 0 -4 8 6 19 18 20 12 30 -14 24z"/>
<path d="M8932 5655 c0 -16 2 -22 5 -12 2 9 2 23 0 30 -3 6 -5 -1 -5 -18z"/>
<path d="M8767 5663 c-4 -3 -7 -15 -7 -25 0 -26 24 -17 28 10 3 21 -8 29 -21
15z"/>
<path d="M9020 5640 c0 -5 7 -10 15 -10 8 0 15 -7 15 -15 0 -8 5 -15 11 -15 6
0 8 7 5 16 -3 9 -6 20 -6 25 0 5 -9 9 -20 9 -11 0 -20 -4 -20 -10z"/>
<path d="M8701 5497 c-14 -36 -14 -34 10 -47 15 -9 24 -8 35 1 19 16 18 38 -3
46 -10 4 -21 11 -25 17 -4 6 -11 -2 -17 -17z"/>
<path d="M8885 5510 c4 -6 11 -8 16 -5 14 9 11 15 -7 15 -8 0 -12 -5 -9 -10z"/>
<path d="M9230 5391 c0 -16 6 -32 13 -35 10 -5 10 -7 0 -12 -24 -11 -13 -21
28 -28 31 -5 40 -10 35 -22 -3 -8 -2 -12 4 -9 19 12 10 33 -19 46 -16 7 -27
18 -24 25 2 7 0 15 -6 19 -6 3 -11 15 -11 26 0 10 -4 19 -10 19 -5 0 -10 -13
-10 -29z"/>
<path d="M9280 5412 c0 -19 26 -62 38 -62 15 0 15 -1 1 39 -10 27 -39 45 -39
23z"/>
<path d="M9350 5390 c0 -5 7 -10 15 -10 8 0 15 5 15 10 0 6 -7 10 -15 10 -8 0
-15 -4 -15 -10z"/>
<path d="M8778 5333 c7 -3 16 -2 19 1 4 3 -2 6 -13 5 -11 0 -14 -3 -6 -6z"/>
<path d="M9266 5277 c3 -10 9 -15 12 -12 3 3 0 11 -7 18 -10 9 -11 8 -5 -6z"/>
<path d="M8760 5270 c0 -5 5 -10 10 -10 6 0 10 5 10 10 0 6 -4 10 -10 10 -5 0
-10 -4 -10 -10z"/>
<path d="M9015 5220 c-3 -5 1 -10 10 -10 9 0 13 5 10 10 -3 6 -8 10 -10 10 -2
0 -7 -4 -10 -10z"/>
<path d="M9245 5160 c3 -5 10 -10 16 -10 5 0 9 5 9 10 0 6 -7 10 -16 10 -8 0
-12 -4 -9 -10z"/>
<path d="M9227 5103 c-10 -9 -9 -23 2 -23 5 0 11 7 15 15 5 15 -5 20 -17 8z"/>
<path d="M9595 5160 c-4 -6 6 -10 24 -10 16 0 38 -3 48 -7 16 -6 16 -5 4 10
-15 18 -66 23 -76 7z"/>
<path d="M9096 4724 c-8 -21 -8 -24 3 -24 12 0 22 28 12 35 -5 3 -12 -2 -15
-11z"/>
<path d="M3427 8743 c-29 -15 -67 -27 -93 -28 -71 -2 -88 -40 -80 -175 5 -86
9 -111 19 -127 4 -7 5 -112 1 -235 -9 -320 -10 -374 -3 -455 3 -40 2 -76 -2
-80 -4 -4 -4 -42 2 -83 5 -41 8 -273 7 -515 -1 -242 -1 -480 0 -530 1 -49 -4
-119 -12 -155 -37 -165 -60 -429 -40 -462 4 -6 8 -39 9 -72 2 -86 14 -134 41
-164 13 -14 24 -32 24 -40 0 -12 4 -12 25 2 34 22 58 20 85 -9 23 -24 47 -35
35 -16 -8 14 35 41 67 41 15 0 30 -5 33 -11 5 -7 12 -6 23 4 10 8 32 22 50 31
27 14 32 22 32 50 0 19 -5 36 -12 38 -19 7 -18 86 3 172 10 44 17 81 14 84 -2
2 2 17 11 33 11 23 14 65 13 202 -2 94 -5 177 -8 182 -10 17 -12 55 -12 200
-1 163 2 215 12 215 3 0 7 102 7 227 1 260 -1 252 86 254 182 2 381 -2 390
-10 6 -4 48 -4 96 1 98 11 135 34 127 78 -3 13 1 37 9 53 8 15 17 44 20 65 2
20 7 51 10 69 3 17 0 49 -7 70 -7 21 -13 42 -14 46 0 17 -59 67 -77 67 -10 0
-18 4 -18 9 0 13 -206 24 -227 12 -15 -9 -13 -10 14 -11 17 0 35 -4 38 -10 3
-5 30 -10 60 -10 45 0 55 -3 60 -20 3 -11 11 -20 16 -20 13 0 33 -19 47 -47
15 -27 16 -123 2 -123 -5 0 -10 -6 -10 -14 0 -7 -9 -25 -20 -39 -17 -22 -26
-25 -63 -21 -49 6 -97 25 -97 39 -1 25 -93 67 -131 60 -11 -2 -74 -13 -138
-24 l-118 -21 -42 21 c-33 16 -42 25 -38 40 3 10 -2 43 -10 72 -28 99 -28 101
-7 92 36 -15 179 -2 309 27 71 16 33 26 -80 21 -78 -3 -96 -1 -135 19 -45 23
-63 54 -40 68 10 6 10 18 1 53 -6 25 -9 52 -6 59 3 7 7 85 9 173 2 116 8 170
19 196 10 23 12 40 6 50 -15 24 -10 59 11 81 11 12 20 32 20 45 0 13 5 23 10
23 6 0 9 12 7 28 -2 19 -10 28 -25 30 -12 2 -22 7 -22 12 0 10 -44 60 -53 60
-10 0 -81 50 -88 62 -4 6 -29 12 -55 14 -38 3 -60 -3 -97 -23z"/>
<path d="M1557 8686 c-11 -9 -32 -12 -57 -9 -24 4 -50 0 -71 -11 -46 -23 -79
-21 -79 4 0 32 -60 27 -96 -7 -16 -16 -44 -32 -62 -38 -31 -9 -63 -50 -99
-125 -4 -8 -15 -22 -26 -30 -17 -14 -18 -29 -17 -165 3 -178 3 -166 -2 -283
-2 -51 0 -95 4 -98 4 -3 8 -14 8 -25 0 -10 5 -19 11 -19 8 0 9 -19 3 -62 -4
-35 -6 -139 -4 -233 5 -289 0 -504 -15 -603 -8 -53 -12 -99 -9 -103 9 -15 -29
-235 -47 -271 -27 -52 -28 -244 -2 -279 29 -40 43 -63 54 -91 6 -16 15 -28 20
-28 5 0 9 -7 9 -16 0 -8 7 -22 15 -30 8 -8 18 -20 22 -27 5 -7 25 -27 44 -45
37 -34 82 -51 154 -58 273 -27 440 -18 550 32 17 7 59 15 95 17 95 6 262 37
285 53 11 8 36 14 56 14 20 0 42 7 49 15 7 8 25 15 40 15 15 0 35 9 45 20 10
11 24 20 30 20 7 0 18 7 25 15 7 8 25 15 39 15 70 0 153 77 137 128 -5 13 0
27 12 39 28 26 35 58 17 73 -11 9 -13 24 -9 59 11 95 5 119 -39 149 -24 16
-48 22 -86 22 -29 0 -60 4 -70 10 -26 13 -115 -13 -203 -61 -24 -12 -28 -11
-28 5 0 8 6 17 13 19 7 3 5 6 -5 6 -10 1 -18 -4 -18 -10 0 -5 -5 -7 -10 -4 -8
5 -8 11 -1 19 8 9 1 13 -24 14 -20 2 -35 -2 -35 -8 0 -15 -40 -28 -154 -51
-56 -11 -105 -24 -110 -29 -6 -6 -39 -10 -74 -10 l-63 0 7 53 c9 58 8 141 -1
235 -5 49 -10 62 -21 58 -8 -3 -14 -1 -14 5 0 5 7 12 15 15 8 4 15 12 15 20 0
8 3 14 8 14 4 0 13 9 20 21 10 16 12 41 6 96 -6 72 -8 75 -30 70 -14 -2 -21 0
-17 6 3 5 -1 13 -8 18 -11 8 -11 11 5 20 15 9 16 13 5 20 -10 6 -11 13 -3 26
12 21 7 56 -7 48 -5 -4 -9 1 -9 10 0 9 -7 23 -15 31 -11 11 -12 21 -5 33 5 10
7 21 4 23 -3 3 7 9 21 12 28 7 28 22 2 75 -9 19 -9 25 1 28 6 3 12 16 12 29 0
14 -4 23 -9 20 -5 -4 -7 3 -4 14 3 12 -1 22 -11 26 -22 8 -20 21 5 29 15 5 19
13 16 27 -3 11 1 30 9 43 11 17 12 28 3 56 -7 19 -16 38 -20 44 -12 13 -11 38
1 30 17 -10 42 67 35 110 -19 123 -22 182 -16 290 9 159 2 210 -32 239 -31 26
-34 36 -12 36 8 0 15 9 15 20 0 11 -6 20 -14 20 -7 0 -16 14 -19 30 -5 21 -12
30 -27 30 -11 0 -20 -5 -20 -12 0 -6 -3 -8 -6 -5 -4 4 -1 13 6 22 19 23 4 30
-23 12 -22 -14 -25 -14 -42 9 -21 28 -24 28 -48 10z m27 -151 c-4 -8 -2 -15 3
-15 5 0 11 -26 12 -57 1 -31 3 -60 4 -64 1 -4 -6 -14 -16 -21 -12 -9 -16 -20
-11 -32 5 -14 9 -15 16 -4 5 8 6 1 1 -17 -4 -16 -7 -147 -6 -290 1 -323 1
-316 15 -333 9 -10 9 -15 -1 -21 -16 -10 -5 -161 11 -161 6 0 4 -7 -3 -16 -10
-12 -13 -66 -14 -219 0 -112 -3 -198 -7 -192 -4 7 -8 -8 -9 -33 -2 -65 1 -88
18 -150 28 -102 31 -120 23 -125 -4 -2 -10 -23 -14 -45 -3 -22 -11 -40 -16
-40 -6 0 -10 5 -10 10 0 6 -5 10 -11 10 -7 0 -8 -11 -4 -31 5 -22 3 -34 -6
-40 -11 -7 -11 -9 -1 -9 9 0 11 -7 7 -21 -5 -15 -4 -19 4 -15 8 5 10 -4 5 -33
-6 -35 -3 -44 23 -70 31 -31 54 -36 228 -47 69 -5 92 -2 155 20 56 18 77 22
82 13 6 -8 10 -9 16 -1 13 19 80 44 129 49 75 7 166 35 183 55 8 10 30 21 48
25 27 6 37 3 56 -18 13 -14 26 -31 29 -38 4 -8 12 -22 19 -31 22 -30 -11 -69
-74 -89 -159 -52 -181 -55 -219 -28 -13 10 -20 8 -35 -7 -10 -10 -45 -30 -77
-44 -31 -13 -57 -28 -57 -32 0 -5 -6 -8 -12 -8 -7 0 -26 -8 -43 -17 -20 -11
-63 -18 -132 -21 -84 -3 -105 -8 -119 -23 -27 -29 -114 -24 -114 7 0 8 -4 14
-9 14 -4 0 -19 10 -33 23 -52 46 -94 80 -114 93 -11 8 -27 33 -34 57 -8 23
-26 58 -40 77 -60 81 -62 86 -46 133 10 32 13 84 10 212 -6 280 -1 579 11 690
16 140 21 291 12 313 -8 16 -7 33 1 56 7 18 12 46 12 62 0 16 5 45 10 64 12
41 16 296 5 359 -4 27 -4 41 2 38 12 -7 39 40 30 50 -4 3 -7 -2 -7 -12 0 -10
-3 -16 -6 -12 -3 3 -3 15 1 28 5 14 10 18 14 10 10 -15 41 -3 41 15 0 9 12 14
35 14 26 0 33 -3 29 -15z m-154 -75 c0 -5 -2 -10 -4 -10 -3 0 -8 5 -11 10 -3
6 -1 10 4 10 6 0 11 -4 11 -10z m-150 -30 c0 -5 -4 -10 -10 -10 -5 0 -10 5
-10 10 0 6 5 10 10 10 6 0 10 -4 10 -10z m368 -192 c-6 -18 -28 -21 -28 -4 0
9 7 16 16 16 9 0 14 -5 12 -12z m1 -147 c-15 -5 -22 6 -14 19 6 9 10 9 16 -1
5 -8 4 -15 -2 -18z m-4 -31 c3 -5 -1 -10 -9 -10 -9 0 -16 5 -16 10 0 6 4 10 9
10 6 0 13 -4 16 -10z m28 -66 c-4 -12 -8 -13 -14 -3 -9 15 -2 32 11 24 5 -3 6
-13 3 -21z m-23 -139 c0 -14 -2 -25 -4 -25 -2 0 -6 11 -8 25 -3 14 -1 25 3 25
5 0 9 -11 9 -25z m0 -551 c0 -8 -4 -12 -10 -9 -5 3 -10 10 -10 16 0 5 5 9 10
9 6 0 10 -7 10 -16z m-10 -44 c0 -5 -5 -10 -11 -10 -5 0 -7 5 -4 10 3 6 8 10
11 10 2 0 4 -4 4 -10z m500 -640 c-8 -5 -17 -7 -19 -4 -3 3 1 9 9 14 8 5 17 7
19 4 3 -3 -1 -9 -9 -14z m-59 -22 c-23 -18 -101 -26 -101 -10 1 20 20 31 60
34 59 4 68 -1 41 -24z"/>
<path d="M1535 7757 c-13 -10 -16 -21 -11 -40 8 -35 21 -34 36 4 16 37 3 56
-25 36z"/>
<path d="M1535 6730 c-3 -5 -1 -10 4 -10 6 0 11 5 11 10 0 6 -2 10 -4 10 -3 0
-8 -4 -11 -10z"/>
<path d="M1523 6553 c-13 -2 -23 -9 -23 -14 0 -14 26 -11 40 6 7 8 11 14 9 14
-2 -1 -14 -4 -26 -6z"/>
<path d="M4839 8308 c-21 -9 -46 -15 -56 -12 -10 2 -27 -4 -38 -14 -28 -24
-65 -115 -54 -134 4 -8 5 -28 0 -44 -4 -16 -3 -51 2 -78 5 -28 6 -73 3 -101
-3 -27 -6 -54 -6 -60 -4 -51 18 -474 25 -485 2 -4 0 -44 -6 -91 -5 -46 -10
-93 -10 -104 0 -11 -4 -34 -10 -52 -5 -17 -12 -150 -14 -295 -2 -144 -9 -318
-15 -386 -8 -85 -9 -132 -2 -150 6 -15 13 -43 16 -63 4 -20 18 -49 31 -63 14
-15 25 -32 25 -38 0 -14 66 -75 100 -93 14 -7 44 -16 67 -20 24 -4 60 -15 80
-25 64 -29 218 -44 316 -28 26 4 184 8 350 9 166 1 307 5 312 9 16 12 93 21
97 11 3 -7 53 -4 223 13 17 2 40 4 53 5 16 1 21 5 16 14 -6 9 -4 9 7 1 8 -6
37 -14 64 -18 28 -4 61 -9 75 -13 14 -3 53 -8 87 -10 54 -4 66 -2 95 19 18 14
40 23 48 21 9 -2 36 7 60 20 39 20 49 33 72 88 25 57 27 76 28 182 0 108 -1
117 -16 103 -11 -11 -14 -25 -9 -46 6 -26 4 -30 -14 -30 -13 0 -21 -6 -21 -17
0 -12 -3 -14 -10 -7 -7 7 -7 20 -2 35 8 20 4 28 -19 47 -26 21 -30 22 -35 7
-4 -9 -1 -28 7 -41 11 -21 11 -27 -1 -34 -8 -5 -13 -25 -13 -53 1 -35 -2 -44
-13 -40 -8 3 -14 1 -14 -4 0 -4 -16 -17 -35 -27 -19 -11 -35 -23 -35 -27 0
-11 -58 -28 -113 -32 -26 -3 -49 -6 -51 -8 -2 -2 -13 -20 -25 -39 -11 -19 -21
-30 -22 -25 -2 20 -10 70 -13 72 -1 1 -18 0 -38 -3 -28 -5 -39 -13 -48 -35 -8
-17 -17 -26 -26 -22 -8 3 -20 0 -28 -6 -16 -14 -46 -4 -46 15 0 8 -4 14 -10
14 -5 0 -10 23 -10 50 0 31 4 49 11 48 6 -2 13 16 15 40 4 44 28 92 46 92 6 0
28 16 49 35 22 19 46 35 54 35 24 0 72 34 68 48 -7 18 8 15 23 -5 13 -17 15
-17 28 0 7 9 18 17 25 17 6 0 11 13 11 29 0 16 5 31 11 33 7 2 14 33 18 68 5
56 9 65 26 65 24 0 25 14 28 288 0 103 5 187 9 187 4 0 8 7 8 15 0 10 -7 15
-17 13 -11 -2 -18 3 -18 12 0 8 -4 18 -9 21 -11 8 1 42 12 35 4 -2 14 -1 22 4
10 6 13 35 14 109 l0 100 -41 48 c-23 26 -47 47 -53 45 -7 -1 -10 3 -8 10 3 7
15 15 29 16 33 5 43 17 27 33 -8 8 -13 37 -13 69 0 44 4 56 19 63 13 5 17 13
12 30 -3 12 -6 32 -6 45 0 19 -4 22 -20 17 -24 -8 -26 2 -4 27 14 14 14 21 4
32 -17 21 -4 69 27 100 14 14 30 26 34 26 17 0 9 30 -12 40 -11 7 -18 14 -15
17 3 3 -4 18 -14 34 -24 33 -18 38 50 43 36 3 55 -1 66 -12 9 -8 26 -16 39
-18 36 -3 42 -10 37 -44 -4 -28 -2 -30 28 -30 17 0 40 -5 51 -10 16 -9 19 -7
19 15 0 14 -6 28 -14 31 -10 4 -13 15 -9 40 3 19 1 40 -6 48 -6 8 -10 20 -9
27 2 7 -8 18 -21 25 -13 7 -27 18 -32 25 -13 21 -29 23 -145 13 -56 -5 -83 -3
-88 5 -4 6 -17 11 -29 11 -12 0 -41 7 -65 16 -36 14 -46 15 -67 4 -14 -7 -25
-17 -25 -22 0 -5 -10 -22 -22 -39 -17 -23 -22 -45 -23 -97 -1 -37 -10 -93 -19
-126 -15 -49 -17 -84 -13 -220 3 -88 9 -192 13 -231 4 -38 8 -95 9 -125 0 -50
-2 -55 -20 -51 -11 2 -72 2 -135 1 -134 -3 -195 -3 -230 -1 -63 6 -200 -7
-215 -19 -15 -12 -70 -15 -170 -8 -27 2 -59 1 -70 -3 -12 -4 -25 -1 -32 6 -14
15 -53 13 -237 -10 l-59 -8 6 94 c3 52 10 106 15 120 7 18 6 41 -5 80 -11 40
-13 86 -9 179 3 69 5 136 4 150 -3 28 0 191 4 260 3 45 3 45 -32 48 -19 2 -41
8 -48 14 -7 6 -29 8 -52 4 -24 -4 -40 -2 -40 3 0 13 -66 30 -109 28 -19 -1
-52 -10 -72 -19z m1740 -200 c0 -7 -4 -22 -8 -32 -10 -25 -22 -6 -14 22 6 23
23 31 22 10z m-62 -160 c-3 -8 -6 -5 -6 6 -1 11 2 17 5 13 3 -3 4 -12 1 -19z
m53 -79 c0 -5 -4 -9 -10 -9 -5 0 -10 7 -10 16 0 8 5 12 10 9 6 -3 10 -10 10
-16z m-50 -39 c0 -5 -5 -10 -11 -10 -7 0 -9 -12 -4 -36 5 -28 3 -35 -7 -32
-14 5 -23 51 -14 74 6 16 36 19 36 4z m-85 -29 c3 -5 1 -12 -5 -16 -5 -3 -10
1 -10 9 0 18 6 21 15 7z m111 -45 c18 -19 18 -40 0 -33 -7 3 -19 0 -25 -6 -17
-17 -22 -3 -8 26 14 31 14 31 33 13z m-64 -51 c13 -18 9 -25 -17 -25 -15 0
-25 6 -25 14 0 8 -6 17 -12 19 -7 3 1 5 17 4 17 -1 33 -6 37 -12z m48 -170 c0
-8 -4 -15 -10 -15 -5 0 -10 7 -10 15 0 8 5 15 10 15 6 0 10 -7 10 -15z m81
-68 c-1 -12 -15 -9 -19 4 -3 6 1 10 8 8 6 -3 11 -8 11 -12z m29 -109 c0 -11
-33 -48 -42 -48 -9 0 -11 44 -2 53 8 8 44 4 44 -5z m-335 -39 c29 -6 24 -23
-7 -27 -25 -3 -28 0 -28 25 0 16 4 23 8 17 4 -7 16 -13 27 -15z m8 -86 c-3 -7
-12 -13 -20 -13 -8 0 -12 4 -8 9 3 5 0 13 -6 17 -9 5 -6 11 7 21 16 12 19 11
25 -4 3 -10 4 -24 2 -30z m67 7 c0 -5 -4 -10 -9 -10 -6 0 -13 5 -16 10 -3 6 1
10 9 10 9 0 16 -4 16 -10z m-10 -44 c0 -3 -4 -8 -10 -11 -5 -3 -10 -1 -10 4 0
6 5 11 10 11 6 0 10 -2 10 -4z m247 -42 c-9 -9 -28 6 -21 18 4 6 10 6 17 -1 6
-6 8 -13 4 -17z m-397 -49 c7 -8 8 -15 2 -15 -5 0 -15 7 -22 15 -7 8 -8 15 -2
15 5 0 15 -7 22 -15z m357 -27 c-3 -7 -5 -2 -5 12 0 14 2 19 5 13 2 -7 2 -19
0 -25z m-784 -8 c3 -11 1 -20 -4 -20 -5 0 -9 9 -9 20 0 11 2 20 4 20 2 0 6 -9
9 -20z m557 -50 c33 0 57 -24 42 -42 -15 -20 -24 -120 -24 -260 1 -72 -3 -130
-9 -133 -5 -4 -34 -1 -65 5 -46 10 -64 9 -104 -4 -27 -9 -61 -13 -78 -10 -16
3 -45 1 -65 -4 -24 -7 -49 -7 -71 -1 -24 6 -48 6 -78 -3 -23 -6 -92 -13 -153
-14 -60 -1 -147 -7 -192 -13 -77 -10 -87 -9 -160 15 -43 15 -82 30 -88 34 -5
5 -34 3 -63 -2 -39 -8 -56 -8 -64 0 -13 13 -20 112 -8 112 11 0 23 76 22 141
-1 85 5 89 133 94 171 6 229 12 233 24 2 6 9 11 15 11 7 0 23 12 36 25 28 30
41 32 41 5 0 -18 7 -20 69 -20 56 0 70 3 76 18 6 16 7 16 20 -1 11 -16 26 -18
117 -16 110 3 261 20 291 33 10 5 23 4 30 -2 20 -17 57 -3 58 22 1 17 2 17 6
4 3 -12 14 -18 33 -18z m200 26 c0 -3 -4 -8 -10 -11 -5 -3 -10 -1 -10 4 0 6 5
11 10 11 6 0 10 -2 10 -4z m-750 -16 c0 -5 -2 -10 -4 -10 -3 0 -8 5 -11 10 -3
6 -1 10 4 10 6 0 11 -4 11 -10z m-925 -200 c-3 -5 -10 -10 -16 -10 -5 0 -9 5
-9 10 0 6 7 10 16 10 8 0 12 -4 9 -10z m1655 -300 c0 -5 -7 -10 -16 -10 -8 0
-12 5 -9 10 3 6 10 10 16 10 5 0 9 -4 9 -10z m-490 -20 c0 -5 -7 -10 -16 -10
-8 0 -12 5 -9 10 3 6 10 10 16 10 5 0 9 -4 9 -10z m-247 -187 c3 -5 1 -17 -3
-28 -6 -17 -7 -16 -12 8 -5 25 5 37 15 20z m1007 -23 c0 -5 -2 -10 -4 -10 -3
0 -8 5 -11 10 -3 6 -1 10 4 10 6 0 11 -4 11 -10z m-790 -59 c0 -6 -4 -13 -10
-16 -5 -3 -10 1 -10 9 0 9 5 16 10 16 6 0 10 -4 10 -9z m-255 -11 c3 -5 1 -10
-4 -10 -6 0 -11 5 -11 10 0 6 2 10 4 10 3 0 8 -4 11 -10z m1027 -28 c5 -17 2
-17 -18 -8 -29 13 -31 26 -5 26 10 0 21 -8 23 -18z m-1802 -32 c0 -5 -5 -10
-11 -10 -5 0 -7 5 -4 10 3 6 8 10 11 10 2 0 4 -4 4 -10z m1740 -1 c0 -6 6 -9
14 -6 23 9 27 -5 9 -26 -17 -19 -17 -19 4 -13 32 10 49 -25 24 -48 -17 -16
-19 -16 -24 4 -3 11 -11 19 -18 18 -7 -2 -18 8 -25 21 -7 13 -20 28 -28 33
-25 14 -18 28 14 28 17 0 30 -5 30 -11z m95 1 c3 -5 1 -10 -4 -10 -6 0 -11 5
-11 10 0 6 2 10 4 10 3 0 8 -4 11 -10z m-1670 -41 c-10 -15 -25 -10 -19 6 4 8
10 12 15 9 5 -3 7 -10 4 -15z m835 0 c0 -5 -7 -9 -15 -9 -9 0 -12 6 -9 15 6
15 24 11 24 -6z m390 -30 c0 -5 -4 -9 -10 -9 -5 0 -10 7 -10 16 0 8 5 12 10 9
6 -3 10 -10 10 -16z m50 11 c0 -5 -7 -10 -15 -10 -8 0 -15 5 -15 10 0 6 7 10
15 10 8 0 15 -4 15 -10z m280 -30 c5 0 10 -7 10 -15 0 -8 -7 -15 -15 -15 -8 0
-15 6 -15 13 0 6 -3 23 -5 37 -5 24 -5 24 4 3 6 -13 15 -23 21 -23z m-82 -21
c-3 -8 -7 -3 -11 10 -4 17 -3 21 5 13 5 -5 8 -16 6 -23z"/>
<path d="M4000 7782 c0 -4 11 -9 25 -10 14 -1 25 3 25 8 0 6 -11 10 -25 10
-14 0 -25 -4 -25 -8z"/>
<path d="M6627 7719 c-8 -30 2 -99 15 -99 5 0 6 -9 3 -20 -5 -14 -2 -20 9 -20
21 0 21 44 0 64 -9 9 -13 24 -9 35 3 10 2 29 -3 41 l-9 24 -6 -25z"/>
<path d="M6868 7660 c-13 -49 -17 -100 -7 -100 15 0 20 24 17 76 -3 38 -5 43
-10 24z"/>
<path d="M6610 7560 c0 -5 5 -10 10 -10 6 0 10 5 10 10 0 6 -4 10 -10 10 -5 0
-10 -4 -10 -10z"/>
<path d="M6850 7519 c0 -17 -4 -38 -9 -47 -10 -19 -3 -122 9 -122 3 0 7 6 8
13 1 6 3 30 4 52 2 22 6 45 9 50 4 6 7 27 7 48 1 26 -3 37 -13 37 -10 0 -15
-10 -15 -31z"/>
<path d="M6840 7301 c0 -6 5 -13 10 -16 6 -3 10 1 10 9 0 9 -4 16 -10 16 -5 0
-10 -4 -10 -9z"/>
<path d="M6837 7263 c-11 -10 -8 -63 3 -63 6 0 10 16 10 35 0 36 -2 40 -13 28z"/>
<path d="M6832 7158 c-7 -7 -12 -16 -12 -21 0 -5 7 -1 16 8 9 9 14 18 12 20
-2 3 -10 -1 -16 -7z"/>
<path d="M6850 7103 c0 -20 -24 -38 -39 -29 -11 7 -11 -37 1 -51 5 -7 15 -10
20 -7 6 4 5 10 -3 15 -7 4 -10 11 -7 14 4 4 12 4 18 0 14 -9 2 -67 -16 -78
-22 -12 -17 -41 11 -65 14 -12 25 -26 25 -31 0 -12 -29 -23 -41 -15 -5 3 -17
0 -26 -5 -17 -10 -16 -11 5 -17 22 -6 32 -34 12 -34 -5 0 -10 5 -10 10 0 6 -4
10 -10 10 -14 0 -13 -33 2 -48 8 -8 8 -15 0 -24 -12 -15 -19 -139 -8 -156 4
-7 2 -12 -5 -12 -10 0 -10 -3 -1 -12 9 -9 6 -18 -13 -39 -23 -23 -25 -29 -14
-53 7 -14 16 -26 21 -26 4 0 8 -7 8 -15 0 -11 9 -15 30 -13 16 1 29 7 28 13 0
5 2 18 7 28 5 13 11 15 20 7 11 -9 14 2 17 54 2 55 0 66 -14 69 -16 5 -47 -20
-40 -32 2 -3 -1 -7 -7 -9 -16 -5 -14 25 2 40 12 10 10 15 -6 29 -14 11 -17 18
-9 23 7 4 15 0 18 -8 3 -9 13 -16 21 -16 11 0 12 8 7 35 -5 29 -4 34 9 29 9
-3 18 -13 20 -22 2 -10 3 8 1 38 -1 30 -3 71 -4 90 0 29 -2 32 -11 18 -12 -22
-39 -24 -39 -3 0 8 5 15 10 15 6 0 10 7 10 16 0 10 6 14 15 10 24 -9 21 89 -2
103 -14 8 -15 13 -6 19 9 5 11 29 8 76 -4 64 -15 106 -15 59z m10 -338 c0 -8
-7 -15 -15 -15 -16 0 -20 12 -8 23 11 12 23 8 23 -8z m-90 -275 c0 -5 -2 -10
-4 -10 -3 0 -8 5 -11 10 -3 6 -1 10 4 10 6 0 11 -4 11 -10z"/>
<path d="M11841 7093 c0 -12 -5 -25 -11 -28 -13 -8 -13 -45 0 -45 13 0 23 42
17 71 -4 23 -4 23 -6 2z"/>
<path d="M11800 6985 c0 -8 5 -15 10 -15 6 0 10 7 10 15 0 8 -4 15 -10 15 -5
0 -10 -7 -10 -15z"/>
<path d="M6780 6884 c0 -8 5 -12 10 -9 6 3 10 10 10 16 0 5 -4 9 -10 9 -5 0
-10 -7 -10 -16z"/>
<path d="M6285 6131 c-3 -5 -1 -12 5 -16 5 -3 10 1 10 9 0 18 -6 21 -15 7z"/>
<path d="M2400 4400 c0 -5 5 -10 11 -10 5 0 7 5 4 10 -3 6 -8 10 -11 10 -2 0
-4 -4 -4 -10z"/>
<path d="M0 396 c0 -9 5 -16 10 -16 6 0 10 4 10 9 0 6 -4 13 -10 16 -5 3 -10
-1 -10 -9z"/>
<path d="M20 296 c-7 -14 -10 -32 -7 -40 4 -9 2 -16 -3 -16 -14 0 -13 -177 1
-186 6 -3 9 -17 6 -30 -3 -16 0 -24 10 -24 9 0 12 6 9 18 -7 22 8 47 23 38 6
-4 11 -18 11 -32 0 -13 5 -24 11 -24 12 0 8 66 -7 133 -6 24 -3 27 19 27 13 0
31 7 38 16 12 14 9 20 -19 44 -25 21 -32 34 -32 63 0 32 -3 37 -23 37 -15 0
-29 -9 -37 -24z"/>
<path d="M146 261 c-4 -7 -5 -15 -2 -18 9 -9 19 4 14 18 -4 11 -6 11 -12 0z"/>
<path d="M151 163 c-10 -12 -11 -30 -4 -91 8 -58 11 -66 12 -34 0 23 6 42 11
42 6 0 10 9 10 20 0 11 -4 20 -10 20 -5 0 -10 9 -10 20 0 11 5 20 10 20 6 0
10 -4 10 -10 0 -5 5 -10 10 -10 16 0 12 14 -8 26 -13 9 -21 8 -31 -3z"/>
<path d="M180 73 c0 -5 5 -15 10 -23 9 -13 11 -13 20 0 15 22 12 30 -10 30
-11 0 -20 -3 -20 -7z"/>
</g>
</svg>
