<?xml version="1.0" encoding="UTF-8" standalone="no"?>
<!-- Created with Inkscape (http://www.inkscape.org/) -->

<svg
   width="210mm"
   height="297mm"
   viewBox="0 0 210 297"
   version="1.1"
   id="svg5"
   inkscape:version="1.1.1 (3bf5ae0d25, 2021-09-20)"
   sodipodi:docname="рисунок.svg"
   xmlns:inkscape="http://www.inkscape.org/namespaces/inkscape"
   xmlns:sodipodi="http://sodipodi.sourceforge.net/DTD/sodipodi-0.dtd"
   xmlns="http://www.w3.org/2000/svg"
   xmlns:svg="http://www.w3.org/2000/svg">
  <sodipodi:namedview
     id="namedview7"
     pagecolor="#ffffff"
     bordercolor="#666666"
     borderopacity="1.0"
     inkscape:pageshadow="2"
     inkscape:pageopacity="0.0"
     inkscape:pagecheckerboard="0"
     inkscape:document-units="mm"
     showgrid="false"
     inkscape:zoom="0.31723122"
     inkscape:cx="455.50372"
     inkscape:cy="458.656"
     inkscape:window-width="1366"
     inkscape:window-height="705"
     inkscape:window-x="-8"
     inkscape:window-y="-8"
     inkscape:window-maximized="1"
     inkscape:current-layer="layer1" />
  <defs
     id="defs2">
    <rect
       x="194.12495"
       y="374.70009"
       width="292.06949"
       height="249.07935"
       id="rect1793" />
  </defs>
  <g
     inkscape:label="Слой 1"
     inkscape:groupmode="layer"
     id="layer1">
    <path
       style="fill:#ffffff;stroke-width:0.264583"
       id="path210"
       d="m 22.927753,114.11122 c -0.07905,1.35958 0.318006,2.67703 0.475946,4.01646 0.09075,0.91503 -0.127603,1.81679 -0.359774,2.69507 -0.222252,1.06218 -0.404503,2.1313 -0.445692,3.21676 -0.01469,0.97095 -0.189609,1.93841 -0.370642,2.89118 -0.292249,1.48192 -0.479981,2.98416 -0.615504,4.48789 -0.163509,1.52636 -0.22541,3.06493 -0.246707,4.59973 -0.01101,1.4751 -0.07444,2.94787 -0.146691,4.42102 -0.08684,1.29093 0.08137,2.56936 0.186455,3.85114 0.02046,0.41961 -0.03066,0.83748 -0.05891,1.25527 -0.06476,0.67546 0.0014,1.33792 0.152095,1.99656 0.108301,0.53685 0.30977,1.0474 0.545344,1.53963 0.332761,0.60762 0.763817,1.14897 1.195366,1.68761 0.846921,0.9712 1.793832,1.33787 3.039391,1.52711 1.553317,0.11298 3.096428,-0.12961 4.645519,-0.20531 1.178237,-0.0248 2.35517,0.0285 3.535441,0.0145 0.6594,-0.0218 1.29661,-0.1982 1.946789,-0.29127 0.606967,-0.0531 1.189117,-0.23162 1.752409,-0.45561 0.73859,-0.31699 1.326724,-0.82489 1.653331,-1.5608 0.163163,-0.47861 0.04004,-0.8652 -0.25047,-1.24974 -0.186526,-0.32975 -0.438042,-0.61516 -0.683758,-0.90165 -0.583041,-0.49508 -1.338471,-0.70966 -2.057024,-0.92943 -0.670999,-0.22612 -1.37156,-0.3366 -2.056074,-0.50775 -0.834171,-0.14373 -1.676607,-0.17488 -2.522064,-0.14734 -0.891707,0.0497 -1.792775,0.0799 -2.678457,-0.0496 -0.854233,-0.13005 -1.259972,-0.25995 -1.808564,-0.91541 -0.48586,-0.84077 -1.060768,-1.62655 -1.566652,-2.45444 -0.308961,-0.74109 -0.261802,-1.56265 -0.333155,-2.34938 -0.03933,-1.07408 -0.05488,-2.14651 -0.145126,-3.21893 -0.11713,-0.77426 -0.291792,-1.52355 -0.243037,-2.30989 0.103849,-0.75554 0.04313,-1.55848 0.333329,-2.27332 0.34973,-0.79223 0.302851,-1.6176 0.14918,-2.44627 -0.208224,-0.88796 -0.52563,-1.7468 -0.791088,-2.61963 -0.307286,-0.92274 -0.500238,-1.87712 -0.775154,-2.8086 -0.251644,-0.92934 -0.820446,-1.55642 -1.681294,-1.95653 -0.878173,-0.31622 -1.746823,-0.19728 -2.491581,0.34478 -0.70328,0.50206 -1.028396,1.20676 -1.236338,2.02019 -0.477551,1.80867 -0.215618,3.67806 0.03851,5.49868 0.04927,0.3187 0.09854,0.63739 0.147807,0.95609 1.91e-4,0.0559 0.790263,0.0532 0.790072,-0.003 v 0 c 0.04669,-0.31691 0.09337,-0.63381 0.140061,-0.95072 0.253485,-1.73459 0.422958,-3.47358 0.417395,-5.22904 0.06968,-0.4824 0.23599,-0.94356 0.676983,-1.20711 0.09787,-0.0487 0.214959,-0.11169 0.319902,-0.14412 0.04848,-0.015 0.191472,-0.002 0.149247,-0.03 -0.0612,-0.0408 -0.150074,0.006 -0.219978,-0.0172 -0.138265,-0.0452 0.63928,0.0677 0.43233,0.0596 0.557481,0.16488 0.860839,0.36264 0.962458,0.97626 0.190427,0.98875 0.383532,1.98256 0.732545,2.93019 0.290014,0.81144 0.649138,1.59535 0.916102,2.41475 0.123455,0.62412 0.106229,1.25239 -0.106511,1.85854 -0.18886,0.86929 -0.421918,1.73804 -0.391863,2.63671 0.05051,0.78528 0.228564,1.5572 0.19685,2.34669 -0.01,1.09453 0.103107,2.17583 0.192816,3.26527 0.05586,0.94331 0.110486,1.90214 0.459961,2.79186 0.390143,1.01802 1.001021,1.89663 1.701359,2.72863 0.656037,0.78667 1.417896,1.36215 2.444681,1.56945 1.230691,0.20408 2.465898,0.18102 3.70519,0.068 0.523412,-0.0281 1.037307,-0.11823 1.564445,-0.16653 0.182853,0.01 0.388339,0.18296 0.549476,0.25793 0.265366,0.12348 0.570936,0.2463 0.850561,0.32645 0.167288,0.048 0.339045,0.0787 0.508566,0.11802 0.578829,0.11058 1.198221,0.12704 1.716627,0.43306 0.297733,0.17317 0.499965,0.44235 0.762805,0.66132 0.07329,0.0711 0.188201,0.0925 0.154757,0.16124 -0.351599,0.42859 -0.841954,0.72244 -1.328999,0.97199 -0.47198,0.21414 -0.92202,0.42946 -1.451512,0.439 -0.639736,0.0715 -1.27027,-5.3e-4 -1.911872,-0.0307 -1.184693,-0.0227 -2.368886,0.0292 -3.553047,-0.0208 -1.275471,-0.0121 -2.561098,0.0577 -3.82135,0.249 -1.057806,0.0147 -1.713096,-0.15349 -2.459138,-0.94565 -0.461835,-0.39452 -0.952048,-0.78184 -1.24854,-1.32391 -0.2263,-0.40926 -0.367097,-0.84583 -0.432188,-1.31013 -0.0939,-0.59005 -0.215635,-1.18163 -0.233298,-1.77963 0.01086,-0.41219 0.0013,-0.82886 0.101713,-1.23199 0.278501,-1.29659 0.423351,-2.61244 0.330689,-3.94148 -0.128082,-1.44495 -0.399065,-2.88555 -0.206191,-4.33696 0.151229,-1.52365 0.3429,-3.04201 0.453166,-4.56867 0.0849,-1.47255 0.202568,-2.94218 0.339492,-4.41081 0.155456,-0.99257 0.306572,-1.98144 0.321099,-2.988 0.119694,-1.04311 0.30435,-2.07482 0.485513,-3.10869 0.108142,-0.97977 0.278033,-1.95394 0.301444,-2.94197 -0.05912,-1.37763 -0.26209,-2.76863 -0.742289,-4.06609 -0.0085,-0.0569 -0.813178,0.0632 -0.804683,0.12014 z" />
    <path
       style="fill:#ffffff;stroke-width:0.264583"
       id="path212"
       d="m 26.296478,104.95232 c -0.248381,0.41379 -0.546683,0.80145 -0.745144,1.24136 -2.075441,4.60049 -2.250298,9.9429 -1.893467,14.89617 0.101858,1.41392 0.338231,2.81492 0.507346,4.22237 0.39336,3.25026 1.282586,6.38179 2.44316,9.43069 0.427029,1.12183 0.891053,2.20787 1.471221,3.25662 0.0811,0.10461 0.363979,0.48186 0.46019,0.55005 0.832514,0.59013 2.328825,0.40345 3.259198,0.36453 2.78362,-0.4262 5.602999,-1.56856 7.709067,-3.48347 0.249859,-0.22717 0.45666,-0.49761 0.68499,-0.74642 0.125465,-0.20915 0.250931,-0.4183 0.376396,-0.62745 0.03128,-0.0267 -0.346808,-0.46912 -0.378089,-0.44239 v 0 c -0.28207,0.0366 -0.56414,0.0733 -0.846209,0.1099 -2.837233,0.90758 -5.383882,2.51552 -8.171754,3.55738 -0.326465,0.0826 -0.652929,0.16527 -0.979393,0.2479 -0.136951,0.0513 -0.269525,0.11635 -0.410853,0.15399 -0.166949,0.0445 -0.353597,0.0183 -0.510198,0.0913 -0.09087,0.0423 -0.03349,0.3646 0.04134,0.29789 0.07271,-0.0648 0.05645,-0.18647 0.08468,-0.27971 0.14327,-1.21501 0.04681,-2.36211 -0.07364,-3.58339 -0.304575,-3.08807 -0.741481,-6.161 -1.122661,-9.23996 -0.336418,-4.14299 -0.591352,-8.28281 -0.82741,-12.43248 -0.113544,-1.99597 -0.278744,-3.98937 -0.353627,-5.98716 -0.01648,-0.43981 -8e-6,-0.88023 -10e-6,-1.32034 0.0196,-0.0513 -0.705512,-0.32863 -0.725124,-0.27736 z" />
    <g
       id="g70140"
       transform="matrix(2.4619264,0,0,2.6414206,-172.25229,-212.43362)">
      <ellipse
         style="opacity:0.7;fill:#800080;stroke-width:0.112044"
         id="path291"
         cx="108.92681"
         cy="129.95747"
         rx="37.159729"
         ry="36.683674" />
      <text
         xml:space="preserve"
         transform="matrix(0.21735152,0.00107615,-0.06072219,0.23971249,59.015655,8.9915264)"
         id="text1791"
         style="font-style:italic;font-variant:normal;font-weight:normal;font-stretch:normal;font-size:192px;line-height:1.15;font-family:sans-serif;-inkscape-font-specification:'sans-serif Italic';white-space:pre;shape-inside:url(#rect1793);fill:#eed7f4;fill-opacity:1;stroke:none"
         x="131.17969"
         y="0"
         inkscape:transform-center-x="0.93837896"
         inkscape:transform-center-y="-0.27611747"><tspan
           x="225.41016"
           y="540.26664"
           id="tspan70163"><tspan
             style="font-size:96px;text-align:center;text-anchor:middle"
             id="tspan70161">NABi</tspan></tspan></text>
      <path
         style="fill:#eed7f4;fill-opacity:1;stroke-width:0.264583"
         id="path45582"
         d="m 126.09342,132.08813 c 0.51432,-1.08442 1.03095,-2.1721 1.64708,-3.20374 0.29464,-0.49334 0.61556,-0.97049 0.92334,-1.45574 0.47893,-0.6054 0.9307,-1.2333 1.43677,-1.8162 1.28464,-1.47966 2.8103,-2.97169 4.24621,-4.29544 0.75927,-0.69997 1.53131,-1.38659 2.32058,-2.05254 0.72205,-0.60922 1.4747,-1.18122 2.21204,-1.77184 8e-5,-8e-5 -10e-4,-0.001 -10e-4,-0.001 v 0 c -0.73742,0.59058 -1.49015,1.16253 -2.21226,1.77174 -0.78932,0.66593 -1.56137,1.35256 -2.32065,2.05255 -1.43633,1.32418 -2.96114,2.8156 -4.24596,4.29584 -0.50601,0.58298 -0.9577,1.21097 -1.43655,1.81645 -0.30772,0.48529 -0.62859,0.96249 -0.92317,1.45588 -0.61599,1.03171 -1.13244,2.11947 -1.64647,3.20402 0,1e-5 1.5e-4,7e-5 1.5e-4,6e-5 z" />
      <path
         style="fill:#eed7f4;fill-opacity:1;stroke-width:0.264583"
         id="path45584"
         d="m 138.89769,118.44393 c -1.28996,-0.0607 -2.52895,0.34484 -3.66078,0.94174 -0.48632,0.25648 -0.94843,0.55645 -1.42265,0.83468 -1.39997,0.9779 -2.088,1.39929 -3.38694,2.56216 -1.86093,1.66597 -3.53914,3.57493 -4.9412,5.64242 -0.42394,0.62514 -0.78795,1.28889 -1.18192,1.93333 -1.01467,2.14041 -0.62197,1.10432 -1.23643,3.08551 -2e-5,6e-5 7.9e-4,2.6e-4 7.9e-4,2e-4 v 0 c 0.61498,-1.98086 0.22204,-0.94495 1.23714,-3.08498 0.39403,-0.64436 0.75813,-1.30801 1.1821,-1.93308 1.40215,-2.06724 3.08015,-3.97618 4.9409,-5.64215 1.29841,-1.1625 1.98717,-1.58454 3.38658,-2.56223 0.47413,-0.27827 0.93616,-0.57827 1.4224,-0.83479 1.13165,-0.59699 2.37014,-1.00225 3.65993,-0.94247 2e-5,0 1.3e-4,-2.7e-4 1.1e-4,-2.7e-4 z" />
      <path
         style="fill:#eed7f4;fill-opacity:1;stroke-width:0.264583"
         id="path45586"
         d="m 126.29002,131.27794 c 1.67468,-2.1483 3.51526,-4.15678 5.59421,-5.92246 0.65213,-0.55386 1.33886,-1.06562 2.00829,-1.59844 1.70408,-1.21568 3.54001,-2.21397 5.41201,-3.13962 0.80657,-0.39882 0.51185,-0.31625 0.96785,-0.4226 0.0143,0.009 0.13913,-0.19328 0.12484,-0.20211 v 0 c -0.18387,-0.10557 -0.34326,-0.27734 -0.55159,-0.31672 -0.93085,-0.17594 -2.00519,0.1649 -2.83142,0.48939 -1.98704,0.78038 -2.52163,1.2734 -4.34772,2.4684 -0.68338,0.5788 -1.40421,1.1161 -2.05015,1.73642 -1.1926,1.14531 -2.11119,2.30342 -3.01952,3.6695 -0.51552,0.7753 -0.999,1.64619 -1.35358,2.51532 -0.0843,0.20665 -0.13369,0.42588 -0.20054,0.63881 -0.006,0.0175 0.24138,0.1016 0.24732,0.0841 z" />
      <path
         style="fill:#eed7f4;fill-opacity:1;stroke-width:0.264583"
         id="path45588"
         d="m 142.31654,118.36845 c -0.86404,0.34748 -1.62725,0.89724 -2.37552,1.44163 -0.95362,0.69443 -1.89797,1.4038 -2.7961,2.1695 -0.55506,0.4732 -0.74073,0.66106 -1.26744,1.15855 -0.69035,0.69316 -1.31366,1.45729 -1.71361,2.35784 -0.25259,0.56876 -0.26021,0.72321 -0.40152,1.32096 -0.0643,0.48711 -0.086,0.98785 0.0512,1.46585 0.0302,0.10514 0.10892,0.30501 0.21044,0.38524 0.0344,0.0272 0.082,0.0307 0.12306,0.0461 0.19904,-0.16175 0.15504,-0.0591 0.15168,-0.29891 8e-4,-0.006 -0.0833,-0.019 -0.0842,-0.013 v 0 c -0.0673,0.1425 -0.0986,0.10563 0.0125,0.14474 0.0307,0.091 -0.0521,-0.15094 -0.0659,-0.30122 -0.0408,-0.44553 0.0121,-0.89053 0.0973,-1.32793 0.051,-0.20328 0.0895,-0.4101 0.153,-0.60982 0.35242,-1.10883 1.04399,-2.03472 1.8997,-2.80922 1.28879,-1.16013 2.66979,-2.21354 3.97399,-3.35667 0.6946,-0.56841 1.37113,-1.15954 2.09636,-1.68912 0.006,-0.005 -0.059,-0.0891 -0.0649,-0.0845 z" />
      <path
         style="fill:#eed7f4;fill-opacity:1;stroke-width:0.264583"
         id="path45590"
         d="m 134.18749,128.52768 c -0.0607,0.39464 -0.15244,0.80677 -0.46383,1.09014 -0.40525,0.36881 -0.82533,0.50131 -1.32572,0.72963 -1.25878,0.45062 -2.58294,0.66636 -3.86816,1.01923 -1.31135,0.41501 -0.70937,0.23993 -1.80189,0.53898 -0.0293,0.011 0.12628,0.42496 0.15555,0.41396 v 0 c 0.69624,-0.003 1.36007,0.015 2.05638,-0.0953 0.46758,-0.0741 0.92818,-0.19115 1.38374,-0.31995 1.30801,-0.36982 1.35445,-0.45014 2.528,-1.01158 0.26153,-0.18606 0.54294,-0.34694 0.78459,-0.55817 0.52223,-0.4565 0.88177,-1.12253 0.71273,-1.81932 -7.9e-4,-0.0114 -0.16226,0.001 -0.16139,0.0124 z" />
      <path
         style="fill:#eed7f4;fill-opacity:1;stroke-width:0.264583"
         id="path45592"
         d="m 126.21795,132.62759 c -0.33896,0.76238 -0.57548,1.5799 -0.66843,2.41074 -0.0374,0.33432 -0.0413,0.67155 -0.0619,1.00733 0.011,1.72749 0.19246,3.49226 0.87589,5.09903 0.49727,1.16908 0.86057,1.57235 1.58223,2.59928 0.77486,0.92569 0.89653,1.12095 1.72303,1.93114 0.31546,0.30923 0.77109,0.72702 1.16772,0.97079 0.0916,0.0563 0.19801,0.084 0.29702,0.12601 0.006,0.008 0.1253,-0.0763 0.11931,-0.0847 v 0 c -0.0234,-0.0934 -0.032,-0.19173 -0.0702,-0.2801 -0.19897,-0.46099 -0.47953,-0.83214 -0.78237,-1.23482 -0.49719,-0.66108 -1.03856,-1.28819 -1.53558,-1.94936 -0.70501,-0.99668 -0.96626,-1.2822 -1.50783,-2.38608 -0.20385,-0.41552 -0.3928,-0.84046 -0.53915,-1.27955 -0.37581,-1.12749 -0.46433,-2.33194 -0.58146,-3.50472 -0.0259,-0.61771 -0.0663,-1.14072 -0.0279,-1.75331 0.0342,-0.546 0.17808,-1.08106 0.20247,-1.62837 0.003,-0.0136 -0.18975,-0.0569 -0.19281,-0.0433 z" />
      <path
         style="fill:#eed7f4;fill-opacity:1;stroke-width:0.264583"
         id="path45594"
         d="m 127.26019,133.07786 c 0.3531,-0.0662 0.70183,-0.1788 1.06397,-0.18664 0.18381,-0.004 0.37718,0.0468 0.55349,0.0812 0.43834,0.14302 1.00591,0.27523 1.35824,0.59239 0.1961,0.17652 0.3144,0.41403 0.44699,0.63537 0.10262,0.30237 0.21507,0.57238 0.2396,0.89605 0.0374,0.49389 -0.0782,1.0375 -0.26202,1.49329 -0.0663,0.16439 -0.1549,0.31889 -0.23235,0.47834 -0.36657,0.73864 -0.99421,1.29456 -1.45977,1.96056 -0.0697,0.0997 -0.12799,0.2069 -0.19199,0.31035 -0.0493,0.12692 -0.11292,0.24916 -0.1478,0.38077 -0.22663,0.85506 -0.0821,1.98141 0.14122,2.8172 0.0793,0.2968 0.19107,0.58397 0.28661,0.87595 0.44978,1.19246 1.11831,2.28134 2.05217,3.15533 0.15995,0.14969 0.33914,0.27739 0.50872,0.41608 0.0146,0.0195 0.29069,-0.1871 0.27608,-0.20663 v 0 c -0.1175,-0.1604 -0.24151,-0.31622 -0.35249,-0.4812 -0.65996,-0.98103 -1.19898,-2.04347 -1.72741,-3.09841 -0.28046,-0.78545 -0.31346,-0.81992 -0.51862,-1.62101 -0.12066,-0.47113 -0.2925,-1.21715 -0.21854,-1.71882 0.0151,-0.10265 0.0692,-0.19565 0.10376,-0.29347 0.59839,-0.76159 1.35789,-1.40175 1.78494,-2.29112 0.0805,-0.18009 0.17164,-0.35578 0.24143,-0.54028 0.35713,-0.94417 0.35995,-1.84115 -0.1125,-2.74348 -0.2415,-0.36572 -0.25028,-0.4405 -0.59131,-0.71785 -0.42501,-0.34565 -0.97323,-0.4928 -1.49398,-0.61868 -0.12453,-0.0175 -0.24807,-0.0447 -0.37358,-0.0524 -0.51304,-0.0317 -1.01547,0.0827 -1.47148,0.316 -0.0114,0.007 0.0852,0.16799 0.0966,0.16116 z" />
      <ellipse
         style="opacity:0.52;fill:#bc5fd3;fill-opacity:1;stroke-width:0.362636"
         id="path67844"
         cx="117.63911"
         cy="130.39059"
         rx="35.176552"
         ry="37.005943" />
    </g>
  </g>
</svg>
